<svg xmlns="http://www.w3.org/2000/svg" xmlns:xlink="http://www.w3.org/1999/xlink" width="145.408" height="46" viewBox="0 0 145.408 46">
  <defs>
    <radialGradient id="radial-gradient" cx="0.422" cy="0.393" r="0.743" gradientTransform="matrix(0.82, -0.572, 0.572, 0.82, -2.211, 0.275)" gradientUnits="objectBoundingBox">
      <stop offset="0" stop-color="#fff"/>
      <stop offset="0.364" stop-color="#f1f0ef"/>
      <stop offset="1" stop-color="#343433"/>
    </radialGradient>
    <radialGradient id="radial-gradient-2" cx="-1035.984" cy="119.25" r="2344.822" gradientTransform="matrix(-0.42, 0.616, -0.329, -0.788, -22229.461, -12990.007)" gradientUnits="objectBoundingBox">
      <stop offset="0.027" stop-color="#fff"/>
      <stop offset="0.407" stop-color="#abcf37"/>
      <stop offset="1" stop-color="#086e38"/>
    </radialGradient>
    <radialGradient id="radial-gradient-3" cx="984.736" cy="-1124.689" r="2973.642" gradientTransform="matrix(-0.408, 0.644, -0.344, -0.765, -25392.6, -14465.226)" xlink:href="#radial-gradient-2"/>
    <radialGradient id="radial-gradient-4" cx="-6.583" cy="-0.065" r="5.473" gradientTransform="matrix(-1.101, 0.616, -0.862, -0.788, -178.859, 0.347)" xlink:href="#radial-gradient-2"/>
    <linearGradient id="linear-gradient" x1="-3090.783" y1="6693.763" x2="-2723.201" y2="6714.564" gradientTransform="matrix(1, 0, 0, 1, 0, 0)" xlink:href="#radial-gradient-2"/>
    <radialGradient id="radial-gradient-5" cx="-445.939" cy="82.201" r="542.083" gradientTransform="matrix(0.89, -0.29, 0.259, 0.92, -1993, -268.364)" xlink:href="#radial-gradient-2"/>
    <linearGradient id="linear-gradient-2" x1="-1608.895" y1="3072.691" x2="-1403.168" y2="3083.356" gradientTransform="matrix(1, 0, 0, 1, 0, 0)" xlink:href="#radial-gradient-2"/>
    <radialGradient id="radial-gradient-6" cx="-271.654" cy="51.425" r="288.854" gradientTransform="matrix(0.971, -0.29, 0.283, 0.92, -884.9, -174.14)" xlink:href="#radial-gradient-2"/>
    <linearGradient id="linear-gradient-3" x1="-5210.625" y1="12988.285" x2="-4584.082" y2="13028.994" gradientTransform="matrix(1, 0, 0, 1, 0, 0)" xlink:href="#radial-gradient-2"/>
    <radialGradient id="radial-gradient-7" cx="-757.687" cy="242.556" r="1104.549" gradientTransform="matrix(0.775, -0.29, 0.226, 0.92, -3919.532, -325.265)" xlink:href="#radial-gradient-2"/>
    <linearGradient id="linear-gradient-4" x1="-16543.908" y1="37106.531" x2="-16543.783" y2="37106.535" gradientTransform="matrix(1, 0, 0, 1, 0, 0)" xlink:href="#radial-gradient-2"/>
    <radialGradient id="radial-gradient-8" cx="0.498" cy="0.497" r="0.465" gradientTransform="matrix(1.158, -0.29, 0.337, 0.92, -9898.462, -1819.179)" xlink:href="#radial-gradient-2"/>
    <linearGradient id="linear-gradient-5" x1="-2065.765" y1="4336.49" x2="-1806.8" y2="4351.05" gradientTransform="matrix(1, 0, 0, 1, 0, 0)" xlink:href="#radial-gradient-2"/>
    <radialGradient id="radial-gradient-9" cx="-330.24" cy="71.478" r="391.078" gradientTransform="matrix(0.895, -0.29, 0.261, 0.92, -1292.484, -191.807)" xlink:href="#radial-gradient-2"/>
    <linearGradient id="linear-gradient-6" x1="-900.204" y1="1159.581" x2="-787.961" y2="1163.557" gradientTransform="matrix(1, 0, 0, 1, 0, 0)" xlink:href="#radial-gradient-2"/>
    <radialGradient id="radial-gradient-10" cx="-139.485" cy="-6.967" r="91.17" gradientTransform="matrix(1.421, -0.29, 0.414, 0.92, -135.152, -133.743)" xlink:href="#radial-gradient-2"/>
    <linearGradient id="linear-gradient-7" x1="-709.28" y1="667.091" x2="-621.46" y2="669.391" gradientTransform="matrix(1, 0, 0, 1, 0, 0)" xlink:href="#radial-gradient-2"/>
    <radialGradient id="radial-gradient-11" cx="-132.118" cy="-4.942" r="59.641" gradientTransform="matrix(1.923, -0.29, 0.56, 0.92, 222.9, -130.333)" xlink:href="#radial-gradient-2"/>
    <linearGradient id="linear-gradient-8" x1="-654.938" y1="567.297" x2="-577.297" y2="569.149" gradientTransform="matrix(1, 0, 0, 1, 0, 0)" xlink:href="#radial-gradient-2"/>
    <linearGradient id="linear-gradient-9" x1="-608.726" y1="964.876" x2="-608.702" y2="964.876" gradientTransform="matrix(1, 0, 0, 1, 0, 0)" xlink:href="#radial-gradient-2"/>
    <radialGradient id="radial-gradient-12" cx="-151.808" cy="-0.017" r="86.85" gradientTransform="matrix(1.58, -0.29, 0.46, 0.92, 5.902, -139.42)" xlink:href="#radial-gradient-2"/>
    <linearGradient id="linear-gradient-10" x1="-964.748" y1="1383.943" x2="-856.279" y2="1388.048" gradientTransform="matrix(1, 0, 0, 1, 0, 0)" xlink:href="#radial-gradient-2"/>
    <radialGradient id="radial-gradient-13" cx="-126.45" cy="-16.988" r="91.844" gradientTransform="matrix(1.33, -0.29, 0.387, 0.92, -242.037, -132.127)" xlink:href="#radial-gradient-2"/>
    <linearGradient id="linear-gradient-11" x1="-733.272" y1="806.414" x2="-651.844" y2="808.804" gradientTransform="matrix(1, 0, 0, 1, 0, 0)" xlink:href="#radial-gradient-2"/>
    <radialGradient id="radial-gradient-14" cx="-132.525" cy="-5.462" r="68.578" gradientTransform="matrix(1.715, -0.29, 0.499, 0.92, 91.57, -130.514)" xlink:href="#radial-gradient-2"/>
    <linearGradient id="linear-gradient-12" x1="-1112.264" y1="1746.652" x2="-977.732" y2="1752.336" gradientTransform="matrix(1, 0, 0, 1, 0, 0)" xlink:href="#radial-gradient-2"/>
    <radialGradient id="radial-gradient-15" cx="-185.93" cy="11.049" r="151.418" gradientTransform="matrix(1.192, -0.29, 0.347, 0.92, -394.726, -150.772)" xlink:href="#radial-gradient-2"/>
    <linearGradient id="linear-gradient-13" x1="-1252.101" y1="2132.113" x2="-1110.607" y2="2138.411" gradientTransform="matrix(1, 0, 0, 1, 0, 0)" xlink:href="#radial-gradient-2"/>
    <radialGradient id="radial-gradient-16" cx="-192.389" cy="7.098" r="168.807" gradientTransform="matrix(1.131, -0.29, 0.329, 0.92, -531.717, -157.849)" xlink:href="#radial-gradient-2"/>
    <radialGradient id="radial-gradient-17" cx="0.5" cy="0.5" r="0.393" gradientTransform="matrix(1.854, 0.425, -0.871, 0.905, -113.176, -15.951)" gradientUnits="objectBoundingBox">
      <stop offset="0" stop-color="#fff"/>
      <stop offset="0.434" stop-color="#ffca07"/>
      <stop offset="1" stop-color="#f48020"/>
    </radialGradient>
    <radialGradient id="radial-gradient-18" cx="0.499" cy="0.5" r="0.409" gradientTransform="matrix(1.559, 0.425, -0.732, 0.905, -322.386, -53.18)" xlink:href="#radial-gradient-17"/>
    <radialGradient id="radial-gradient-19" cx="1600.572" cy="424.423" r="1304.521" gradientTransform="matrix(1.664, -0.11, 0.199, 1.077, -7139.33, 816.342)" xlink:href="#radial-gradient-17"/>
    <radialGradient id="radial-gradient-20" cx="-2025.742" cy="137.093" r="1706.485" gradientTransform="matrix(1.656, -0.144, 0.259, 1.063, -3692.911, 480.604)" xlink:href="#radial-gradient-17"/>
    <radialGradient id="radial-gradient-21" cx="0.493" cy="0.5" r="0.354" gradientTransform="matrix(25.474, 0.425, -11.967, 0.905, -12223.803, -168.785)" xlink:href="#radial-gradient-17"/>
    <radialGradient id="radial-gradient-22" cx="1.019" cy="0.5" r="0.353" gradientUnits="objectBoundingBox">
      <stop offset="0.027" stop-color="#fff"/>
      <stop offset="0.335" stop-color="#46a6dd"/>
      <stop offset="1" stop-color="#242264"/>
    </radialGradient>
    <radialGradient id="radial-gradient-23" cx="0.5" cy="0.5" r="0.366" gradientTransform="matrix(3.378, 0.425, -1.587, 0.905, -671.092, -53.901)" xlink:href="#radial-gradient-17"/>
    <radialGradient id="radial-gradient-24" cx="0.502" cy="0.5" r="0.354" gradientTransform="matrix(12.718, 0.425, -5.975, 0.905, -4115.602, -103.512)" xlink:href="#radial-gradient-17"/>
    <radialGradient id="radial-gradient-25" cx="0.499" cy="0.5" r="0.358" gradientTransform="matrix(6.113, 0.425, -2.872, 0.905, -1461.128, -69.171)" xlink:href="#radial-gradient-17"/>
    <radialGradient id="radial-gradient-26" cx="0.5" cy="0.5" r="0.36" gradientTransform="matrix(4.911, 0.425, -2.307, 0.905, -1083.812, -62.262)" xlink:href="#radial-gradient-17"/>
    <radialGradient id="radial-gradient-27" cx="0.5" cy="0.5" r="0.363" gradientTransform="matrix(4.001, 0.425, -1.88, 0.905, -829.507, -57.19)" xlink:href="#radial-gradient-17"/>
    <radialGradient id="radial-gradient-28" cx="0.499" cy="0.5" r="0.356" gradientTransform="matrix(8.115, 0.425, -3.812, 0.905, -2154.441, -79.677)" xlink:href="#radial-gradient-17"/>
    <radialGradient id="radial-gradient-29" cx="0.5" cy="0.5" r="0.37" gradientTransform="matrix(2.929, 0.425, -1.376, 0.905, -555.859, -50.864)" xlink:href="#radial-gradient-17"/>
    <radialGradient id="radial-gradient-30" cx="0.5" cy="0.5" r="0.397" gradientTransform="matrix(1.782, 0.425, -0.837, 0.905, -55.147, -8.148)" xlink:href="#radial-gradient-17"/>
    <radialGradient id="radial-gradient-31" cx="0.5" cy="0.5" r="0.376" gradientTransform="matrix(2.513, 0.425, -1.181, 0.905, -465.799, -49.025)" xlink:href="#radial-gradient-17"/>
    <radialGradient id="radial-gradient-32" cx="0.502" cy="0.498" r="0.374" gradientTransform="matrix(-2.91, 0.11, -0.321, -0.994, -209907.891, 1663.474)" xlink:href="#radial-gradient-17"/>
    <radialGradient id="radial-gradient-33" cx="1198.872" cy="84.327" r="465.039" gradientTransform="matrix(-2.876, -0.187, 0.605, -1.086, -259613, -20126.297)" xlink:href="#radial-gradient-17"/>
    <radialGradient id="radial-gradient-34" cx="0.504" cy="0.498" r="0.363" gradientTransform="matrix(-4.152, 0.11, -0.459, -0.994, -186360.281, 2028.909)" xlink:href="#radial-gradient-17"/>
    <radialGradient id="radial-gradient-35" cx="785.128" cy="52.616" r="206.616" gradientTransform="matrix(-4.103, -0.187, 0.863, -1.086, -230794.453, -12015.63)" xlink:href="#radial-gradient-17"/>
    <radialGradient id="radial-gradient-36" cx="0.496" cy="0.501" r="0.386" gradientTransform="matrix(-2.299, 0.11, -0.254, -0.994, -299109.469, 793.45)" xlink:href="#radial-gradient-17"/>
    <radialGradient id="radial-gradient-37" cx="1783.963" cy="113.401" r="888.368" gradientTransform="matrix(-2.272, -0.187, 0.478, -1.086, -368294.563, -37195.648)" xlink:href="#radial-gradient-17"/>
    <radialGradient id="radial-gradient-38" cx="0.457" cy="0.495" r="0.598" gradientTransform="matrix(-0.788, 0.11, -0.087, -0.994, -520527.438, -54092)" xlink:href="#radial-gradient-17"/>
    <radialGradient id="radial-gradient-39" cx="0.457" cy="0.495" r="0.585" gradientTransform="matrix(-0.779, -0.187, 0.164, -1.086, -621603.938, -210096.953)" xlink:href="#radial-gradient-17"/>
    <radialGradient id="radial-gradient-40" cx="0.495" cy="0.5" r="0.364" gradientTransform="matrix(-3.636, 0.11, -0.402, -0.994, -209764.5, 2152.393)" xlink:href="#radial-gradient-17"/>
    <radialGradient id="radial-gradient-41" cx="864.999" cy="64.67" r="266.072" gradientTransform="matrix(-3.594, -0.187, 0.756, -1.086, -258848.297, -15623.695)" xlink:href="#radial-gradient-17"/>
    <radialGradient id="radial-gradient-42" cx="0.506" cy="0.501" r="0.354" gradientTransform="matrix(1, 0, 0, 1, 0, 0)" xlink:href="#radial-gradient-17"/>
    <radialGradient id="radial-gradient-43" cx="1835.879" cy="38.55" r="78.381" gradientTransform="matrix(1, 0, 0, 1, 0, 0)" xlink:href="#radial-gradient-17"/>
    <radialGradient id="radial-gradient-44" cx="0.485" cy="0.5" r="0.354" xlink:href="#radial-gradient-22"/>
    <radialGradient id="radial-gradient-45" cx="10158.392" cy="34.817" r="70.364" xlink:href="#radial-gradient-22"/>
    <radialGradient id="radial-gradient-46" cx="0.486" cy="0.501" r="0.354" gradientTransform="matrix(1, 0, 0, 1, 0, 0)" xlink:href="#radial-gradient-17"/>
    <radialGradient id="radial-gradient-47" cx="568.222" cy="48.682" r="58.826" gradientTransform="matrix(1, 0, 0, 1, 0, 0)" xlink:href="#radial-gradient-17"/>
    <radialGradient id="radial-gradient-48" cx="0.492" cy="0.5" r="0.354" xlink:href="#radial-gradient-22"/>
    <radialGradient id="radial-gradient-49" cx="1291.261" cy="33.317" r="55.041" xlink:href="#radial-gradient-22"/>
    <radialGradient id="radial-gradient-50" cx="0.48" cy="0.5" r="0.356" gradientTransform="matrix(-7.787, 0.11, -0.86, -0.994, -362820.531, 3386.839)" xlink:href="#radial-gradient-17"/>
    <radialGradient id="radial-gradient-51" cx="842.029" cy="43.652" r="116.95" gradientTransform="matrix(-7.696, -0.187, 1.619, -1.086, -449779.969, -11826.885)" xlink:href="#radial-gradient-17"/>
    <radialGradient id="radial-gradient-52" cx="0.492" cy="0.5" r="0.357" gradientTransform="matrix(-6.054, 0.11, -0.669, -0.994, -291419.313, 3036.525)" xlink:href="#radial-gradient-17"/>
    <radialGradient id="radial-gradient-53" cx="745.789" cy="49.221" r="136.286" gradientTransform="matrix(-5.983, -0.187, 1.259, -1.086, -360014.969, -12414.507)" xlink:href="#radial-gradient-17"/>
    <radialGradient id="radial-gradient-54" cx="4.509" cy="4.93" r="6.035" gradientTransform="matrix(-1.046, 0.165, -0.191, -1.082, -555.954, -56.126)" xlink:href="#radial-gradient-17"/>
    <radialGradient id="radial-gradient-55" cx="8.003" cy="10.526" r="16.159" gradientTransform="matrix(-0.891, 0.165, -0.163, -1.082, -1179.367, -172.911)" xlink:href="#radial-gradient-17"/>
    <radialGradient id="radial-gradient-56" cx="21.305" cy="-59.736" r="122.54" gradientTransform="matrix(-0.258, 0.165, -0.047, -1.082, -1733.661, -2134.469)" xlink:href="#radial-gradient-17"/>
    <radialGradient id="radial-gradient-57" cx="36.192" cy="-122.066" r="257.365" gradientTransform="matrix(-0.19, 0.165, -0.035, -1.082, -2573.593, -4688.338)" xlink:href="#radial-gradient-17"/>
    <radialGradient id="radial-gradient-58" cx="224.84" cy="68.966" r="59.458" gradientTransform="matrix(-4.33, 0.165, -0.793, -1.082, -58594.051, 848.094)" xlink:href="#radial-gradient-17"/>
    <radialGradient id="radial-gradient-59" cx="192.691" cy="56.648" r="35.658" gradientTransform="matrix(-6.133, 0.165, -1.123, -1.082, -66039.492, 983.332)" xlink:href="#radial-gradient-17"/>
    <radialGradient id="radial-gradient-60" cx="14.943" cy="-346.638" r="251.873" gradientTransform="matrix(-0.191, 0.11, -0.021, -0.994, -2561.749, -3696.55)" xlink:href="#radial-gradient-17"/>
    <radialGradient id="radial-gradient-61" cx="8.027" cy="-219.574" r="162.917" gradientTransform="matrix(-0.273, 0.11, -0.03, -0.994, -2508.863, -2297.199)" xlink:href="#radial-gradient-17"/>
    <radialGradient id="radial-gradient-62" cx="6.575" cy="-161.227" r="118.199" gradientTransform="matrix(-0.214, 0.11, -0.024, -0.994, -1359.342, -1699.501)" xlink:href="#radial-gradient-17"/>
    <radialGradient id="radial-gradient-63" cx="27.785" cy="3.861" r="3.06" gradientTransform="matrix(-18.439, 0.11, -2.037, -0.994, -46935.945, 234.522)" xlink:href="#radial-gradient-17"/>
    <radialGradient id="radial-gradient-64" cx="-0.102" cy="0.073" r="4.264" gradientTransform="matrix(-0.862, 0.11, -0.095, -0.994, -298.633, -35.481)" xlink:href="#radial-gradient-17"/>
    <radialGradient id="radial-gradient-65" cx="639.016" cy="205.556" r="266.074" gradientTransform="matrix(-5.654, 0.11, -0.625, -0.994, -441214.219, 4260.059)" xlink:href="#radial-gradient-17"/>
    <radialGradient id="radial-gradient-66" cx="15.486" cy="46.856" r="36.112" gradientTransform="matrix(-0.854, 0.11, -0.094, -0.994, -2464.881, -211.549)" xlink:href="#radial-gradient-17"/>
  </defs>
  <g id="Logo" transform="translate(-973.475 -607.886)">
    <text id="Rezilla" transform="translate(1023.883 644.886)" fill="#fff" font-size="34" font-family="SegoeUI, Segoe UI"><tspan x="0" y="0">Rezilla</tspan></text>
    <g id="Group_1987" data-name="Group 1987" transform="translate(973.475 610.727)">
      <g id="Group_1986" data-name="Group 1986" transform="translate(0.033 0.032)" opacity="0.8" style="mix-blend-mode: screen;isolation: isolate">
        <path id="Path_7101" data-name="Path 7101" d="M991.581,656.785c-.358-.009-.679-.024-.977-.046l-.056,0c-.3-.023-.63-.056-1-.1-.084-.01-.167-.022-.25-.034l-.085-.012q-.344-.047-.685-.107l-.059-.011c-.1-.017-.2-.033-.294-.053-.268-.051-.534-.108-.8-.17l-.282-.067c-.271-.068-.54-.14-.806-.219-.125-.037-.248-.074-.372-.114l-.048-.016c-.174-.055-.347-.109-.518-.171l-.161-.053c-.072-.024-.144-.047-.216-.074l-.226-.083c-.138-.05-.274-.1-.409-.156a13.981,13.981,0,0,1-3.73-2.18l-.087-.005v-.02c.015,0,.027-.011.03-.026l0-.02-.015-.013.026-2.2.168.022-.083-.069a19.035,19.035,0,0,1-3.167-3.417,5.441,5.441,0,0,1-1.91-.85c-.034-.023-.065-.046-.091-.067-.778-.633-3.125-4.037-3.4-8.835-.017-.284-.025-.569-.029-.853l0-.183c0-.285,0-.569.009-.854l0-.042c.009-.275.024-.55.044-.823l.012-.162c.023-.283.049-.566.083-.848l.013-.1c.031-.255.067-.508.107-.762l.026-.166q.067-.406.148-.81l.037-.178c.047-.222.1-.444.151-.664l.048-.2q.094-.374.2-.743l.079-.266c.053-.177.108-.353.166-.529,0,0,.068-.211.089-.273q.111-.327.232-.648c.045-.121.092-.24.139-.36s.1-.238.145-.357q.139-.337.289-.666l.113-.249c.071-.152.143-.3.217-.45l.073-.143c.161-.318.326-.628.494-.923q.524-.92,1.058-1.675l.007,0a16.869,16.869,0,0,1,2.823-3.114l.008-.007.014-.03.07-.06.058-.046c.038-.035.075-.068.113-.1l.052-.028,2.434.533-.076.2.216-.161c.088-.066.176-.131.266-.194a18.865,18.865,0,0,1,10.843-3.415,19.1,19.1,0,0,1,5.057.682,8.239,8.239,0,0,1,.967-.062,5.421,5.421,0,0,1,.739.048c1.319.185,6.223,2.259,9.511,6.973,4.422,6.339,5.391,14.909,2.409,21.325l-.006.011.01.025-.05.085c-.058.115-.116.229-.176.343l-3.143.923-.017-.111-.045.061a18.928,18.928,0,0,1-3.283,3.419c-.05.123-.094.228-.141.326-.013.031-.026.057-.038.081a9.9,9.9,0,0,1-2.925,2.741,12.98,12.98,0,0,1-4.051,1.917c-.361.094-.732.18-1.1.254l-.469.094q-.386.077-.776.138l-.059.01c-.076.012-.152.025-.227.035a20.575,20.575,0,0,1-2.078.19l-.293.009c-.181,0-.362.006-.544.006Zm-8.692-4.044.011.062.424-.08.1-.021-.1-.04-.011-.007Z" transform="translate(-972.049 -617.267)" fill="#fff"/>
      </g>
      <path id="Path_7102" data-name="Path 7102" d="M1012.711,625.294a19.014,19.014,0,1,1-26.473-4.713A19.015,19.015,0,0,1,1012.711,625.294Z" transform="translate(-976.266 -617.158)" fill="url(#radial-gradient)"/>
      <path id="Path_7103" data-name="Path 7103" d="M1085.472,704.923c.229-.2.982-.793,1.145-.969a9.644,9.644,0,0,0-2.631-5.817A9.269,9.269,0,0,1,1085.472,704.923Z" transform="translate(-1050.622 -674.024)" fill="#009147" opacity="0.4" style="mix-blend-mode: multiply;isolation: isolate"/>
      <path id="Path_7104" data-name="Path 7104" d="M1082.612,689.3c.39.212.771.446,1.143.694A12.619,12.619,0,0,0,1082.612,689.3Z" transform="translate(-1049.658 -667.821)" fill="none"/>
      <path id="Path_7105" data-name="Path 7105" d="M1081.3,688.627c.12.06.242.119.36.185C1081.541,688.748,1081.421,688.687,1081.3,688.627Z" transform="translate(-1048.736 -667.346)" fill="none"/>
      <path id="Path_7106" data-name="Path 7106" d="M1082.511,689.249l.03.016Z" transform="translate(-1049.587 -667.783)" fill="url(#radial-gradient-2)"/>
      <path id="Path_7107" data-name="Path 7107" d="M1082.511,689.249l.03.016Z" transform="translate(-1049.587 -667.783)" fill="url(#radial-gradient-3)"/>
      <path id="Path_7108" data-name="Path 7108" d="M1086.451,691.633a15.392,15.392,0,0,1,5.148,7.074c.026.075.048.155.074.229A13.454,13.454,0,0,0,1086.451,691.633Z" transform="translate(-1052.353 -669.457)" fill="url(#radial-gradient-4)"/>
      <path id="Path_7109" data-name="Path 7109" d="M1096.346,701.6c.064.1.129.194.192.292C1096.475,701.792,1096.41,701.7,1096.346,701.6Z" transform="translate(-1059.302 -676.455)" fill="none"/>
      <path id="Path_7110" data-name="Path 7110" d="M1097.272,703.044c.059.1.117.192.174.291C1097.389,703.236,1097.331,703.14,1097.272,703.044Z" transform="translate(-1059.952 -677.47)" fill="none"/>
      <path id="Path_7111" data-name="Path 7111" d="M1090.026,694.4c.1.091.206.183.307.279C1090.232,694.586,1090.13,694.494,1090.026,694.4Z" transform="translate(-1054.864 -671.402)" fill="none"/>
      <path id="Path_7112" data-name="Path 7112" d="M1098.164,704.572c.052.095.1.186.155.283C1098.269,704.758,1098.216,704.667,1098.164,704.572Z" transform="translate(-1060.579 -678.544)" fill="none"/>
      <path id="Path_7113" data-name="Path 7113" d="M1095.38,700.233q.109.146.211.292Q1095.488,700.378,1095.38,700.233Z" transform="translate(-1058.624 -675.496)" fill="none"/>
      <path id="Path_7114" data-name="Path 7114" d="M1099.015,706.191c.046.089.092.18.136.273C1099.107,706.371,1099.061,706.28,1099.015,706.191Z" transform="translate(-1061.176 -679.68)" fill="none"/>
      <path id="Path_7115" data-name="Path 7115" d="M1093.345,697.715q.126.139.248.288Q1093.471,697.854,1093.345,697.715Z" transform="translate(-1057.195 -673.728)" fill="none"/>
      <path id="Path_7116" data-name="Path 7116" d="M1092.271,696.543c.091.095.18.188.267.287C1092.451,696.731,1092.362,696.638,1092.271,696.543Z" transform="translate(-1056.44 -672.905)" fill="none"/>
      <path id="Path_7117" data-name="Path 7117" d="M1091.166,695.442c.1.092.193.188.287.285C1091.359,695.63,1091.262,695.534,1091.166,695.442Z" transform="translate(-1055.664 -672.132)" fill="none"/>
      <path id="Path_7118" data-name="Path 7118" d="M1094.381,698.935c.077.1.154.193.229.291C1094.535,699.128,1094.458,699.031,1094.381,698.935Z" transform="translate(-1057.922 -674.585)" fill="none"/>
      <path id="Path_7119" data-name="Path 7119" d="M1088.861,693.422c.11.089.218.179.326.273C1089.079,693.6,1088.971,693.511,1088.861,693.422Z" transform="translate(-1054.046 -670.713)" fill="none"/>
      <path id="Path_7120" data-name="Path 7120" d="M1080.731,688.367l.03.016c.39.212.771.446,1.143.694.121.083.24.168.358.255a12.921,12.921,0,0,0-2.286-1.339c.131.063.264.122.394.189S1080.613,688.3,1080.731,688.367Z" transform="translate(-1047.806 -666.901)" fill="none"/>
      <path id="Path_7121" data-name="Path 7121" d="M1087.664,692.5q.174.128.344.264Q1087.838,692.63,1087.664,692.5Z" transform="translate(-1053.205 -670.067)" fill="none"/>
      <path id="Path_7122" data-name="Path 7122" d="M1100.632,709.763c.03.074.06.144.088.217C1100.692,709.907,1100.662,709.837,1100.632,709.763Z" transform="translate(-1062.312 -682.189)" fill="none"/>
      <path id="Path_7123" data-name="Path 7123" d="M1099.828,707.892c.04.086.079.171.117.258C1099.907,708.063,1099.868,707.978,1099.828,707.892Z" transform="translate(-1061.747 -680.875)" fill="none"/>
      <path id="Path_7124" data-name="Path 7124" d="M1089.955,694.337l.021.02Z" transform="translate(-1054.814 -671.356)" fill="url(#linear-gradient)"/>
      <path id="Path_7125" data-name="Path 7125" d="M1089.955,694.337l.021.02Z" transform="translate(-1054.814 -671.356)" fill="url(#radial-gradient-5)" style="mix-blend-mode: multiply;isolation: isolate"/>
      <path id="Path_7126" data-name="Path 7126" d="M1092.129,696.4l.042.043Z" transform="translate(-1056.341 -672.804)" fill="url(#linear-gradient-2)"/>
      <path id="Path_7127" data-name="Path 7127" d="M1092.129,696.4l.042.043Z" transform="translate(-1056.341 -672.804)" fill="url(#radial-gradient-6)" style="mix-blend-mode: multiply;isolation: isolate"/>
      <path id="Path_7128" data-name="Path 7128" d="M1088.819,693.388l.013.01Z" transform="translate(-1054.016 -670.69)" fill="url(#linear-gradient-3)"/>
      <path id="Path_7129" data-name="Path 7129" d="M1088.819,693.388l.013.01Z" transform="translate(-1054.016 -670.69)" fill="url(#radial-gradient-7)" style="mix-blend-mode: multiply;isolation: isolate"/>
      <path id="Path_7130" data-name="Path 7130" d="M1087.654,692.489l0,0Z" transform="translate(-1053.198 -670.058)" fill="url(#linear-gradient-4)"/>
      <path id="Path_7131" data-name="Path 7131" d="M1087.654,692.489l0,0Z" transform="translate(-1053.198 -670.058)" fill="url(#radial-gradient-8)" style="mix-blend-mode: multiply;isolation: isolate"/>
      <path id="Path_7132" data-name="Path 7132" d="M1091.057,695.34a.367.367,0,0,0,.032.03A.367.367,0,0,1,1091.057,695.34Z" transform="translate(-1055.588 -672.06)" fill="url(#linear-gradient-5)"/>
      <path id="Path_7133" data-name="Path 7133" d="M1091.057,695.34a.367.367,0,0,0,.032.03A.367.367,0,0,1,1091.057,695.34Z" transform="translate(-1055.588 -672.06)" fill="url(#radial-gradient-9)" style="mix-blend-mode: multiply;isolation: isolate"/>
      <path id="Path_7134" data-name="Path 7134" d="M1096.088,701.215l.077.114Z" transform="translate(-1059.121 -676.186)" fill="url(#linear-gradient-6)"/>
      <path id="Path_7135" data-name="Path 7135" d="M1096.088,701.215l.077.114Z" transform="translate(-1059.121 -676.186)" fill="url(#radial-gradient-10)" style="mix-blend-mode: multiply;isolation: isolate"/>
      <path id="Path_7136" data-name="Path 7136" d="M1098.683,705.524c.034.065.066.131.1.2C1098.749,705.655,1098.717,705.589,1098.683,705.524Z" transform="translate(-1060.943 -679.212)" fill="url(#linear-gradient-7)"/>
      <path id="Path_7137" data-name="Path 7137" d="M1098.683,705.524c.034.065.066.131.1.2C1098.749,705.655,1098.717,705.589,1098.683,705.524Z" transform="translate(-1060.943 -679.212)" fill="url(#radial-gradient-11)" style="mix-blend-mode: multiply;isolation: isolate"/>
      <path id="Path_7138" data-name="Path 7138" d="M1099.472,707.107c.037.076.072.156.106.234C1099.544,707.263,1099.509,707.183,1099.472,707.107Z" transform="translate(-1061.497 -680.324)" fill="url(#linear-gradient-8)"/>
      <path id="Path_7139" data-name="Path 7139" d="M1096.991,702.58l.084.138Z" transform="translate(-1059.755 -677.145)" fill="url(#linear-gradient-9)"/>
      <path id="Path_7140" data-name="Path 7140" d="M1096.991,702.58l.084.138Z" transform="translate(-1059.755 -677.145)" fill="url(#radial-gradient-12)" style="mix-blend-mode: multiply;isolation: isolate"/>
      <path id="Path_7141" data-name="Path 7141" d="M1095.149,699.912l.069.1Z" transform="translate(-1058.461 -675.271)" fill="url(#linear-gradient-10)"/>
      <path id="Path_7142" data-name="Path 7142" d="M1095.149,699.912l.069.1Z" transform="translate(-1058.461 -675.271)" fill="url(#radial-gradient-13)" style="mix-blend-mode: multiply;isolation: isolate"/>
      <path id="Path_7143" data-name="Path 7143" d="M1097.856,704.02c.031.053.062.111.092.164C1097.918,704.131,1097.887,704.073,1097.856,704.02Z" transform="translate(-1060.362 -678.156)" fill="url(#linear-gradient-11)"/>
      <path id="Path_7144" data-name="Path 7144" d="M1097.856,704.02c.031.053.062.111.092.164C1097.918,704.131,1097.887,704.073,1097.856,704.02Z" transform="translate(-1060.362 -678.156)" fill="url(#radial-gradient-14)" style="mix-blend-mode: multiply;isolation: isolate"/>
      <path id="Path_7145" data-name="Path 7145" d="M1094.177,698.681c.02.025.041.052.061.076C1094.218,698.733,1094.2,698.706,1094.177,698.681Z" transform="translate(-1057.779 -674.407)" fill="url(#linear-gradient-12)"/>
      <path id="Path_7146" data-name="Path 7146" d="M1094.177,698.681c.02.025.041.052.061.076C1094.218,698.733,1094.2,698.706,1094.177,698.681Z" transform="translate(-1057.779 -674.407)" fill="url(#radial-gradient-15)" style="mix-blend-mode: multiply;isolation: isolate"/>
      <path id="Path_7147" data-name="Path 7147" d="M1093.169,697.507c.018.02.035.04.052.062C1093.2,697.547,1093.187,697.527,1093.169,697.507Z" transform="translate(-1057.071 -673.582)" fill="url(#linear-gradient-13)"/>
      <path id="Path_7148" data-name="Path 7148" d="M1093.169,697.507c.018.02.035.04.052.062C1093.2,697.547,1093.187,697.527,1093.169,697.507Z" transform="translate(-1057.071 -673.582)" fill="url(#radial-gradient-16)" style="mix-blend-mode: multiply;isolation: isolate"/>
      <path id="Path_7149" data-name="Path 7149" d="M1033.443,619.292c-1.963-.275-5.016.625-7.443,2.287-4.047,2.912-6.674,7.672-5.5,11.34a3.94,3.94,0,0,0,.472.948,6.5,6.5,0,0,0,.513.673,5.972,5.972,0,0,0,.5.51c.151.137.313.266.484.393l.008.006a7.488,7.488,0,0,0,1.106.668c.06.029.118.059.178.088.1.045.194.086.294.129.081.033.163.067.248.1s.187.069.281.1.206.07.311.1c.088.028.178.057.267.081.13.038.263.072.4.105.075.018.15.039.228.057.172.04.351.074.532.108.344.059.69.119,1.033.175,1.276.209,2.527.41,3.74.631.538.095,1.071.194,1.594.3,4.074.824,7.618,2.085,9.98,5.352a23.908,23.908,0,0,1,2.5,4.65c3.228-6.422,2.434-15.2-2.188-21.823C1039.6,621.437,1034.618,619.456,1033.443,619.292Z" transform="translate(-1005.844 -618.622)" fill="#0a0937"/>
      <path id="Path_7150" data-name="Path 7150" d="M1044.108,652.395a26.142,26.142,0,0,0-1.945-3.468c-2.345-3.476-5.97-4.775-10.159-5.61-1.538-.306-3.151-.553-4.805-.821-.467-.076-.937-.153-1.412-.236-.23-.038-.452-.084-.668-.133-.077-.017-.151-.037-.227-.056-.133-.033-.266-.066-.4-.1-.089-.025-.178-.052-.267-.081-.1-.032-.207-.066-.31-.1s-.188-.067-.28-.1-.167-.067-.249-.1c-.1-.041-.2-.083-.292-.126l-.176-.087a7.334,7.334,0,0,1-1.1-.663l-.009-.006c-.168-.125-.331-.253-.48-.389a5.905,5.905,0,0,1-.5-.506c-.1-.121-.2-.242-.3-.367a4.159,4.159,0,0,1-.681-1.246c-1.168-3.652,1.468-8.4,5.514-11.312-4.217,2.889-7.016,7.782-5.82,11.524a4.692,4.692,0,0,0,.979,1.613,6.039,6.039,0,0,0,.495.506c.152.136.313.264.481.389a.016.016,0,0,1,.008,0,7.158,7.158,0,0,0,1.1.664c.059.029.117.059.177.087.1.043.193.084.292.127.082.035.164.067.248.1s.186.07.282.1.2.069.309.1c.087.026.176.056.266.081.128.036.262.07.394.1.077.018.15.038.228.056.215.049.437.093.667.133l.382.063c.344.057.688.117,1.03.172.222.035.44.071.661.107q.975.157,1.928.316c.419.109.834.219,1.238.334a13.584,13.584,0,0,1,8.541,5.549,14.059,14.059,0,0,1,2.04,5.394l3.2-.948C1044.568,653.377,1044.387,652.944,1044.108,652.395Z" transform="translate(-1005.178 -623.984)" fill="#110f70"/>
      <path id="Path_7151" data-name="Path 7151" d="M1000.829,726.645c.213.261.562.724.752.916a9.3,9.3,0,0,0,5.767-1.184A10.067,10.067,0,0,1,1000.829,726.645Z" transform="translate(-992.226 -693.857)" fill="#c2c2c2" opacity="0.4" style="mix-blend-mode: multiply;isolation: isolate"/>
      <path id="Path_7152" data-name="Path 7152" d="M1022.644,737.134h0Z" transform="translate(-1007.544 -701.41)" fill="#fff"/>
      <path id="Path_7153" data-name="Path 7153" d="M1022.644,737.134h0Z" transform="translate(-1007.544 -701.41)" fill="#fff" style="mix-blend-mode: multiply;isolation: isolate"/>
      <path id="Path_7154" data-name="Path 7154" d="M1016.244,693.755a4.638,4.638,0,0,0-3.435,1.754c-.043.052-.093.1-.138.156s-.1.114-.142.174-.079.1-.119.154l-.16.232c-.027.043-.06.087-.088.133-.083.128-.162.26-.242.4-.044.078-.086.154-.128.232l-.344.623c-.074.135-.146.267-.218.4-.345.632-.684,1.256-1.028,1.857l-.118.2a9.916,9.916,0,0,1-5.877,4.231,12.519,12.519,0,0,1-4.48.208l-.168,2.26s-.185,0-.185.007v.008h.217a21.753,21.753,0,0,0,3.421-.5c.039-.009.131-.016.172-.027.089-.019.2-.042.286-.062.033-.01.08-.018.114-.026l.27-.075.089-.027.078-.025c.074-.022.147-.047.22-.071l.041-.014.051-.019a8.32,8.32,0,0,0,2.5-1.393c.184-.125.317-.217.32-.217.074-.065.131-.149.2-.214s.143-.152.218-.224c.03-.03.057-.063.086-.093.155-.159.307-.323.453-.491.079-.089.157-.182.233-.274.126-.154.25-.31.37-.47.091-.12.179-.242.267-.366q.091-.129.18-.259c.153-.224.3-.453.451-.686l.039-.061c.087-.138.174-.272.259-.413.129-.215.254-.435.381-.654.349-.609.693-1.243,1.044-1.88l-.039.058.244-.447c.155-.282.309-.565.472-.852.079-.138.158-.271.24-.4.029-.046.06-.088.09-.132l.159-.233c.039-.052.079-.1.118-.153s.094-.119.141-.176.091-.108.136-.16.084-.092.128-.136.108-.105.156-.161a5.028,5.028,0,0,1,3.136-1.388c2.988.031,6.258,2.585,7.343,5.873C1022.581,696.645,1019.3,693.755,1016.244,693.755Z" transform="translate(-991.205 -670.947)" fill="#c2c2c2"/>
      <path id="Path_7155" data-name="Path 7155" d="M1024.768,705.614a7.123,7.123,0,0,0-.135-5.278c-1.328-3.214-4.341-5.889-7.345-5.882a4.633,4.633,0,0,0-.809.11,5,5,0,0,0-2.333,1.338c-.054.052-.111.1-.164.155s-.09.085-.132.135-.1.1-.14.158-.1.115-.144.177-.08.1-.119.156c-.054.075-.11.153-.163.234-.029.045-.062.087-.09.134-.067.1-.13.214-.2.323-.118.209-.236.42-.35.631-.429.782-.843,1.549-1.268,2.284-.185.328-.371.654-.562.968-1.482,2.462-3.18,4.492-6.131,5.345a20.954,20.954,0,0,1-4.02.657c4.133,3.406,10.885,4.7,16.837,3.076A13.091,13.091,0,0,0,1024.768,705.614Z" transform="translate(-992.114 -671.438)" fill="#fff"/>
      <path id="Path_7156" data-name="Path 7156" d="M1001.756,629.334c-.348.185-1.29.845-1.55,1.021a11.337,11.337,0,0,0,.4,7.828A12.5,12.5,0,0,1,1001.756,629.334Z" transform="translate(-991.428 -625.708)" fill="#f05a26" opacity="0.63" style="mix-blend-mode: multiply;isolation: isolate"/>
      <path id="Path_7157" data-name="Path 7157" d="M998.142,653.416c-.168-.308-.322-.625-.465-.953A10.151,10.151,0,0,0,998.142,653.416Z" transform="translate(-990.013 -641.95)" fill="url(#radial-gradient-17)"/>
      <path id="Path_7158" data-name="Path 7158" d="M999.446,656.016c-.053-.091-.108-.181-.16-.275C999.338,655.835,999.392,655.926,999.446,656.016Z" transform="translate(-991.143 -644.252)" fill="url(#radial-gradient-18)"/>
      <path id="Path_7159" data-name="Path 7159" d="M999.254,655.687a.207.207,0,0,1-.014-.023A.207.207,0,0,0,999.254,655.687Z" transform="translate(-991.11 -644.198)" fill="url(#radial-gradient-19)"/>
      <path id="Path_7160" data-name="Path 7160" d="M999.254,655.687a.207.207,0,0,1-.014-.023A.207.207,0,0,0,999.254,655.687Z" transform="translate(-991.11 -644.198)" fill="url(#radial-gradient-20)"/>
      <path id="Path_7161" data-name="Path 7161" d="M995.172,640.518c0-.1-.009-.193-.01-.294C995.164,640.323,995.168,640.421,995.172,640.518Z" transform="translate(-988.247 -633.357)" fill="url(#radial-gradient-21)"/>
      <path id="Path_7162" data-name="Path 7162" d="M995.163,639.1q0-.142,0-.285Q995.162,638.954,995.163,639.1Z" transform="translate(-988.247 -632.364)" fill="url(#radial-gradient-22)"/>
      <path id="Path_7163" data-name="Path 7163" d="M996.247,648.255c-.03-.1-.062-.214-.087-.325C996.185,648.04,996.217,648.15,996.247,648.255Z" transform="translate(-988.947 -638.767)" fill="url(#radial-gradient-23)"/>
      <path id="Path_7164" data-name="Path 7164" d="M995.233,641.893c-.009-.1-.016-.2-.021-.3C995.217,641.694,995.224,641.794,995.233,641.893Z" transform="translate(-988.282 -634.316)" fill="url(#radial-gradient-24)"/>
      <path id="Path_7165" data-name="Path 7165" d="M995.5,644.546c-.017-.1-.033-.208-.046-.312C995.469,644.338,995.485,644.442,995.5,644.546Z" transform="translate(-988.453 -636.172)" fill="url(#radial-gradient-25)"/>
      <path id="Path_7166" data-name="Path 7166" d="M995.7,645.812c-.021-.1-.041-.211-.059-.318C995.664,645.6,995.683,645.708,995.7,645.812Z" transform="translate(-988.587 -637.057)" fill="url(#radial-gradient-26)"/>
      <path id="Path_7167" data-name="Path 7167" d="M995.956,647.052c-.027-.107-.052-.214-.073-.323C995.9,646.839,995.929,646.946,995.956,647.052Z" transform="translate(-988.753 -637.925)" fill="url(#radial-gradient-27)"/>
      <path id="Path_7168" data-name="Path 7168" d="M995.34,643.236c-.013-.1-.024-.2-.034-.307C995.317,643.034,995.328,643.134,995.34,643.236Z" transform="translate(-988.348 -635.255)" fill="url(#radial-gradient-28)"/>
      <path id="Path_7169" data-name="Path 7169" d="M996.581,649.43c-.036-.11-.071-.219-.1-.331C996.511,649.21,996.545,649.32,996.581,649.43Z" transform="translate(-989.172 -639.588)" fill="url(#radial-gradient-29)"/>
      <path id="Path_7170" data-name="Path 7170" d="M997.848,652.666a.213.213,0,0,1-.014-.023c-.168-.308-.322-.625-.465-.953-.045-.107-.089-.217-.131-.328a9.934,9.934,0,0,0,.95,1.87c-.059-.1-.122-.191-.18-.291S997.9,652.759,997.848,652.666Z" transform="translate(-989.704 -641.177)" fill="url(#radial-gradient-30)"/>
      <path id="Path_7171" data-name="Path 7171" d="M996.956,650.575q-.062-.161-.118-.329Q996.895,650.414,996.956,650.575Z" transform="translate(-989.424 -640.394)" fill="url(#radial-gradient-31)"/>
      <path id="Path_7172" data-name="Path 7172" d="M996.46,649.044a.224.224,0,0,1-.008-.024A.224.224,0,0,0,996.46,649.044Z" transform="translate(-989.153 -639.533)" fill="url(#radial-gradient-32)"/>
      <path id="Path_7173" data-name="Path 7173" d="M996.46,649.044a.224.224,0,0,1-.008-.024A.224.224,0,0,0,996.46,649.044Z" transform="translate(-989.153 -639.533)" fill="url(#radial-gradient-33)"/>
      <path id="Path_7174" data-name="Path 7174" d="M995.855,646.613c-.006-.016-.007-.032-.012-.05C995.848,646.581,995.849,646.6,995.855,646.613Z" transform="translate(-988.725 -637.807)" fill="url(#radial-gradient-34)"/>
      <path id="Path_7175" data-name="Path 7175" d="M995.855,646.613c-.006-.016-.007-.032-.012-.05C995.848,646.581,995.849,646.6,995.855,646.613Z" transform="translate(-988.725 -637.807)" fill="url(#radial-gradient-35)"/>
      <path id="Path_7176" data-name="Path 7176" d="M996.827,650.22c0-.005,0-.008,0-.011S996.825,650.215,996.827,650.22Z" transform="translate(-989.412 -640.368)" fill="url(#radial-gradient-36)"/>
      <path id="Path_7177" data-name="Path 7177" d="M996.827,650.22c0-.005,0-.008,0-.011S996.825,650.215,996.827,650.22Z" transform="translate(-989.412 -640.368)" fill="url(#radial-gradient-37)"/>
      <path id="Path_7178" data-name="Path 7178" d="M998.067,650.925h0Z" transform="translate(-990.285 -640.87)" fill="url(#radial-gradient-38)"/>
      <path id="Path_7179" data-name="Path 7179" d="M998.067,650.925h0Z" transform="translate(-990.285 -640.87)" fill="url(#radial-gradient-39)"/>
      <path id="Path_7180" data-name="Path 7180" d="M996.138,647.848c0-.013-.008-.023-.01-.035C996.13,647.824,996.134,647.834,996.138,647.848Z" transform="translate(-988.925 -638.685)" fill="url(#radial-gradient-40)"/>
      <path id="Path_7181" data-name="Path 7181" d="M996.138,647.848c0-.013-.008-.023-.01-.035C996.13,647.824,996.134,647.834,996.138,647.848Z" transform="translate(-988.925 -638.685)" fill="url(#radial-gradient-41)"/>
      <path id="Path_7182" data-name="Path 7182" d="M995.2,641.324c0-.037,0-.077,0-.113C995.2,641.248,995.2,641.287,995.2,641.324Z" transform="translate(-988.271 -634.049)" fill="url(#radial-gradient-42)"/>
      <path id="Path_7183" data-name="Path 7183" d="M995.2,641.324c0-.037,0-.077,0-.113C995.2,641.248,995.2,641.287,995.2,641.324Z" transform="translate(-988.271 -634.049)" fill="url(#radial-gradient-43)"/>
      <path id="Path_7184" data-name="Path 7184" d="M995.162,639.9c0-.046,0-.091,0-.136C995.163,639.813,995.162,639.858,995.162,639.9Z" transform="translate(-988.247 -633.036)" fill="url(#radial-gradient-44)"/>
      <path id="Path_7185" data-name="Path 7185" d="M995.162,639.9c0-.046,0-.091,0-.136C995.163,639.813,995.162,639.858,995.162,639.9Z" transform="translate(-988.247 -633.036)" fill="url(#radial-gradient-45)" style="mix-blend-mode: multiply;isolation: isolate"/>
      <path id="Path_7186" data-name="Path 7186" d="M995.291,642.7c0-.031,0-.065-.006-.1C995.286,642.636,995.288,642.67,995.291,642.7Z" transform="translate(-988.332 -635.027)" fill="url(#radial-gradient-46)"/>
      <path id="Path_7187" data-name="Path 7187" d="M995.291,642.7c0-.031,0-.065-.006-.1C995.286,642.636,995.288,642.67,995.291,642.7Z" transform="translate(-988.332 -635.027)" fill="url(#radial-gradient-47)"/>
      <path id="Path_7188" data-name="Path 7188" d="M995.165,638.433c0-.052,0-.107.006-.16C995.17,638.326,995.166,638.381,995.165,638.433Z" transform="translate(-988.249 -631.986)" fill="url(#radial-gradient-48)"/>
      <path id="Path_7189" data-name="Path 7189" d="M995.165,638.433c0-.052,0-.107.006-.16C995.17,638.326,995.166,638.381,995.165,638.433Z" transform="translate(-988.249 -631.986)" fill="url(#radial-gradient-49)" style="mix-blend-mode: multiply;isolation: isolate"/>
      <path id="Path_7190" data-name="Path 7190" d="M995.432,644.042c0-.028-.009-.055-.01-.082C995.423,643.987,995.427,644.013,995.432,644.042Z" transform="translate(-988.429 -635.979)" fill="url(#radial-gradient-50)"/>
      <path id="Path_7191" data-name="Path 7191" d="M995.432,644.042c0-.028-.009-.055-.01-.082C995.423,643.987,995.427,644.013,995.432,644.042Z" transform="translate(-988.429 -635.979)" fill="url(#radial-gradient-51)"/>
      <path id="Path_7192" data-name="Path 7192" d="M995.621,645.344c0-.021-.006-.041-.01-.063C995.615,645.3,995.617,645.323,995.621,645.344Z" transform="translate(-988.562 -636.907)" fill="url(#radial-gradient-52)"/>
      <path id="Path_7193" data-name="Path 7193" d="M995.621,645.344c0-.021-.006-.041-.01-.063C995.615,645.3,995.617,645.323,995.621,645.344Z" transform="translate(-988.562 -636.907)" fill="url(#radial-gradient-53)"/>
      <path id="Path_7194" data-name="Path 7194" d="M1005.023,663.341a20.3,20.3,0,0,1-2.042-2.164A14.826,14.826,0,0,0,1005.023,663.341Z" transform="translate(-993.738 -648.07)" fill="url(#radial-gradient-54)" style="mix-blend-mode: multiply;isolation: isolate"/>
      <path id="Path_7195" data-name="Path 7195" d="M1010.732,669.253c-.3-.269-.6-.538-.894-.808.206.18.406.373.612.559C1010.542,669.086,1010.639,669.169,1010.732,669.253Z" transform="translate(-998.553 -653.174)" fill="url(#radial-gradient-55)" style="mix-blend-mode: multiply;isolation: isolate"/>
      <path id="Path_7196" data-name="Path 7196" d="M1004.985,718.1c-.135.037-.273.074-.409.107C1004.712,718.179,1004.849,718.141,1004.985,718.1Z" transform="translate(-994.858 -688.046)" fill="url(#radial-gradient-56)" style="mix-blend-mode: multiply;isolation: isolate"/>
      <path id="Path_7197" data-name="Path 7197" d="M1002.45,718.788c.061-.009.123-.026.182-.039-.087.019-.173.035-.261.05C1002.4,718.794,1002.424,718.793,1002.45,718.788Z" transform="translate(-993.31 -688.499)" fill="url(#radial-gradient-57)" style="mix-blend-mode: multiply;isolation: isolate"/>
      <path id="Path_7198" data-name="Path 7198" d="M995.837,646.5c.008.04.019.081.028.122-.015-.072-.035-.144-.05-.218l.008.048C995.828,646.465,995.832,646.483,995.837,646.5Z" transform="translate(-988.705 -637.694)" fill="url(#radial-gradient-58)" style="mix-blend-mode: multiply;isolation: isolate"/>
      <path id="Path_7199" data-name="Path 7199" d="M988.761,648.759a5.612,5.612,0,0,0-.808-3.711c-.049-.065-.091-.138-.139-.207s-.078-.114-.119-.17-.094-.123-.143-.185-.1-.13-.159-.194-.091-.109-.14-.161c-.069-.078-.141-.152-.215-.227-.041-.045-.08-.089-.124-.131-.12-.117-.245-.235-.378-.352q-.41-.361-.819-.711c-.961-.825-1.905-1.62-2.776-2.435-2.374-2.212-4.2-4.569-4.358-8.1a21.974,21.974,0,0,1,.179-3.912c-4.4,3.724-7.171,10.49-6.789,17.076a14.356,14.356,0,0,0,3.415,8.857,7.746,7.746,0,0,0,5.548,1.07C984.628,654.534,988.074,651.932,988.761,648.759Z" transform="translate(-971.938 -624.958)" fill="#ff9c00"/>
      <path id="Path_7200" data-name="Path 7200" d="M995.761,627.685c.018-.129.038-.253.059-.367-.015.066-.03.134-.043.2C995.773,627.54,995.767,627.6,995.761,627.685Z" transform="translate(-988.667 -624.293)" fill="url(#radial-gradient-59)" style="mix-blend-mode: multiply;isolation: isolate"/>
      <path id="Path_7201" data-name="Path 7201" d="M1001.681,718.958c.07-.01.138-.026.206-.04l-.064.01C1001.776,718.937,1001.73,718.949,1001.681,718.958Z" transform="translate(-992.825 -688.618)" fill="url(#radial-gradient-60)"/>
      <path id="Path_7202" data-name="Path 7202" d="M1006.174,717.9c-.074.022-.15.042-.225.062C1006.024,717.938,1006.1,717.919,1006.174,717.9Z" transform="translate(-995.822 -687.901)" fill="url(#radial-gradient-61)"/>
      <path id="Path_7203" data-name="Path 7203" d="M1003.643,718.463c-.133.031-.263.06-.4.085C1003.38,718.523,1003.512,718.494,1003.643,718.463Z" transform="translate(-993.925 -688.298)" fill="url(#radial-gradient-62)"/>
      <path id="Path_7204" data-name="Path 7204" d="M995.16,631.88c0-.091,0-.183,0-.276,0-.052,0-.107.006-.16,0-.089.005-.182.011-.272,0-.062.009-.123.014-.186s.1-1.864.147-2.437A24.223,24.223,0,0,0,995.16,631.88Z" transform="translate(-988.244 -625.157)" fill="url(#radial-gradient-63)"/>
      <path id="Path_7205" data-name="Path 7205" d="M1015.022,673.05l.578.5c-.02-.017-.038-.037-.058-.055-.074-.064-.147-.127-.221-.192-.2-.174-.4-.347-.6-.517-.13-.113-.257-.22-.386-.332q-.761-.652-1.5-1.3a.1.1,0,0,1,.017.014C1013.554,671.8,1014.281,672.412,1015.022,673.05Z" transform="translate(-1000.662 -655.08)" fill="url(#radial-gradient-64)"/>
      <path id="Path_7206" data-name="Path 7206" d="M995.793,646.277c0,.012,0,.025.007.037C995.8,646.3,995.795,646.289,995.793,646.277Z" transform="translate(-988.69 -637.606)" fill="url(#radial-gradient-65)"/>
      <path id="Path_7207" data-name="Path 7207" d="M994.862,627.573c0,.01,0,.018,0,.027.11-.092.216-.192.328-.282C995.075,627.4,994.968,627.486,994.862,627.573Z" transform="translate(-988.033 -624.293)" fill="url(#radial-gradient-66)"/>
      <path id="Path_7208" data-name="Path 7208" d="M1002.515,642.781c-.007-.007-.014-.011-.02-.018l-.578-.5c-.741-.638-1.468-1.255-2.163-1.877a.1.1,0,0,0-.017-.014c-.094-.084-.19-.167-.282-.25-.206-.186-.406-.379-.612-.559A14.829,14.829,0,0,1,996.8,637.4c-.021-.026-.038-.051-.058-.077a21.357,21.357,0,0,0,2.1,2.239q.3.281.611.559c.573.513,1.172,1.026,1.778,1.546-.54-.544-1.064-1.081-1.551-1.623a10.9,10.9,0,0,1-3.339-7.4,12.643,12.643,0,0,1,.838-4.773l-2.474-.553c-.01,0-.018.023-.026.038l.008-.038c-.112.09-.208.19-.318.282a21.977,21.977,0,0,0-.175,3.912c.155,3.53,1.987,5.886,4.361,8.1.872.815,1.816,1.61,2.778,2.435.271.234.546.47.818.711.134.117.258.235.378.352.044.042.084.086.125.131.074.074.146.149.215.227.049.052.1.107.14.161s.109.13.16.194.1.123.143.185.081.113.119.17.09.141.139.207a5.612,5.612,0,0,1,.808,3.711c-.687,3.173-4.133,5.775-7.825,6.508l.064-.01c.088-.015.174-.032.261-.05.132-.025.263-.054.4-.085s.274-.069.409-.107c.075-.019.151-.039.225-.062,3.342-.976,6.45-3.345,7-6.233C1005.445,645.2,1002.616,642.874,1002.515,642.781Zm-7.443-8.365c-.011-.031-.02-.065-.031-.1.043.119.092.235.139.351C995.145,634.584,995.1,634.5,995.072,634.415Z" transform="translate(-987.557 -624.293)" fill="#9f6202"/>
    </g>
  </g>
</svg>
