<svg xmlns="http://www.w3.org/2000/svg" xmlns:xlink="http://www.w3.org/1999/xlink" width="144.683" height="46" viewBox="0 0 144.683 46">
  <defs>
    <radialGradient id="radial-gradient" cx="0.422" cy="0.393" r="0.743" gradientTransform="matrix(0.82, -0.572, 0.572, 0.82, -2.211, 0.275)" gradientUnits="objectBoundingBox">
      <stop offset="0" stop-color="#fff"/>
      <stop offset="0.364" stop-color="#f1f0ef"/>
      <stop offset="1" stop-color="#343433"/>
    </radialGradient>
    <radialGradient id="radial-gradient-2" cx="-1035.984" cy="119.25" r="2344.822" gradientTransform="matrix(-0.42, 0.616, -0.329, -0.788, -22229.461, -12990.007)" gradientUnits="objectBoundingBox">
      <stop offset="0.027" stop-color="#fff"/>
      <stop offset="0.407" stop-color="#abcf37"/>
      <stop offset="1" stop-color="#086e38"/>
    </radialGradient>
    <radialGradient id="radial-gradient-3" cx="984.736" cy="-1124.689" r="2973.642" gradientTransform="matrix(-0.408, 0.644, -0.344, -0.765, -25392.6, -14465.226)" xlink:href="#radial-gradient-2"/>
    <radialGradient id="radial-gradient-4" cx="-6.583" cy="-0.065" r="5.473" gradientTransform="matrix(-1.101, 0.616, -0.862, -0.788, -178.859, 0.347)" xlink:href="#radial-gradient-2"/>
    <linearGradient id="linear-gradient" x1="-3090.783" y1="6693.763" x2="-2723.201" y2="6714.564" gradientTransform="matrix(1, 0, 0, 1, 0, 0)" xlink:href="#radial-gradient-2"/>
    <radialGradient id="radial-gradient-5" cx="-445.939" cy="82.201" r="542.083" gradientTransform="matrix(0.89, -0.29, 0.259, 0.92, -1993, -268.364)" xlink:href="#radial-gradient-2"/>
    <linearGradient id="linear-gradient-2" x1="-1608.895" y1="3072.691" x2="-1403.168" y2="3083.356" gradientTransform="matrix(1, 0, 0, 1, 0, 0)" xlink:href="#radial-gradient-2"/>
    <radialGradient id="radial-gradient-6" cx="-271.654" cy="51.425" r="288.854" gradientTransform="matrix(0.971, -0.29, 0.283, 0.92, -884.9, -174.14)" xlink:href="#radial-gradient-2"/>
    <linearGradient id="linear-gradient-3" x1="-5210.625" y1="12988.285" x2="-4584.082" y2="13028.994" gradientTransform="matrix(1, 0, 0, 1, 0, 0)" xlink:href="#radial-gradient-2"/>
    <radialGradient id="radial-gradient-7" cx="-757.687" cy="242.556" r="1104.549" gradientTransform="matrix(0.775, -0.29, 0.226, 0.92, -3919.532, -325.265)" xlink:href="#radial-gradient-2"/>
    <linearGradient id="linear-gradient-4" x1="-16543.908" y1="37106.531" x2="-16543.783" y2="37106.535" gradientTransform="matrix(1, 0, 0, 1, 0, 0)" xlink:href="#radial-gradient-2"/>
    <radialGradient id="radial-gradient-8" cx="0.498" cy="0.497" r="0.465" gradientTransform="matrix(1.158, -0.29, 0.337, 0.92, -9898.462, -1819.179)" xlink:href="#radial-gradient-2"/>
    <linearGradient id="linear-gradient-5" x1="-2065.765" y1="4336.49" x2="-1806.8" y2="4351.05" gradientTransform="matrix(1, 0, 0, 1, 0, 0)" xlink:href="#radial-gradient-2"/>
    <radialGradient id="radial-gradient-9" cx="-330.24" cy="71.478" r="391.078" gradientTransform="matrix(0.895, -0.29, 0.261, 0.92, -1292.484, -191.807)" xlink:href="#radial-gradient-2"/>
    <linearGradient id="linear-gradient-6" x1="-900.204" y1="1159.581" x2="-787.961" y2="1163.557" gradientTransform="matrix(1, 0, 0, 1, 0, 0)" xlink:href="#radial-gradient-2"/>
    <radialGradient id="radial-gradient-10" cx="-139.485" cy="-6.967" r="91.17" gradientTransform="matrix(1.421, -0.29, 0.414, 0.92, -135.152, -133.743)" xlink:href="#radial-gradient-2"/>
    <linearGradient id="linear-gradient-7" x1="-709.28" y1="667.091" x2="-621.46" y2="669.391" gradientTransform="matrix(1, 0, 0, 1, 0, 0)" xlink:href="#radial-gradient-2"/>
    <radialGradient id="radial-gradient-11" cx="-132.118" cy="-4.942" r="59.641" gradientTransform="matrix(1.923, -0.29, 0.56, 0.92, 222.9, -130.333)" xlink:href="#radial-gradient-2"/>
    <linearGradient id="linear-gradient-8" x1="-654.938" y1="567.297" x2="-577.297" y2="569.149" gradientTransform="matrix(1, 0, 0, 1, 0, 0)" xlink:href="#radial-gradient-2"/>
    <linearGradient id="linear-gradient-9" x1="-608.726" y1="964.876" x2="-608.702" y2="964.876" gradientTransform="matrix(1, 0, 0, 1, 0, 0)" xlink:href="#radial-gradient-2"/>
    <radialGradient id="radial-gradient-12" cx="-151.808" cy="-0.017" r="86.85" gradientTransform="matrix(1.58, -0.29, 0.46, 0.92, 5.902, -139.42)" xlink:href="#radial-gradient-2"/>
    <linearGradient id="linear-gradient-10" x1="-964.748" y1="1383.943" x2="-856.279" y2="1388.048" gradientTransform="matrix(1, 0, 0, 1, 0, 0)" xlink:href="#radial-gradient-2"/>
    <radialGradient id="radial-gradient-13" cx="-126.45" cy="-16.988" r="91.844" gradientTransform="matrix(1.33, -0.29, 0.387, 0.92, -242.037, -132.127)" xlink:href="#radial-gradient-2"/>
    <linearGradient id="linear-gradient-11" x1="-733.272" y1="806.414" x2="-651.844" y2="808.804" gradientTransform="matrix(1, 0, 0, 1, 0, 0)" xlink:href="#radial-gradient-2"/>
    <radialGradient id="radial-gradient-14" cx="-132.525" cy="-5.462" r="68.578" gradientTransform="matrix(1.715, -0.29, 0.499, 0.92, 91.57, -130.514)" xlink:href="#radial-gradient-2"/>
    <linearGradient id="linear-gradient-12" x1="-1112.264" y1="1746.652" x2="-977.732" y2="1752.336" gradientTransform="matrix(1, 0, 0, 1, 0, 0)" xlink:href="#radial-gradient-2"/>
    <radialGradient id="radial-gradient-15" cx="-185.93" cy="11.049" r="151.418" gradientTransform="matrix(1.192, -0.29, 0.347, 0.92, -394.726, -150.772)" xlink:href="#radial-gradient-2"/>
    <linearGradient id="linear-gradient-13" x1="-1252.101" y1="2132.113" x2="-1110.607" y2="2138.411" gradientTransform="matrix(1, 0, 0, 1, 0, 0)" xlink:href="#radial-gradient-2"/>
    <radialGradient id="radial-gradient-16" cx="-192.389" cy="7.098" r="168.807" gradientTransform="matrix(1.131, -0.29, 0.329, 0.92, -531.717, -157.849)" xlink:href="#radial-gradient-2"/>
    <radialGradient id="radial-gradient-17" cx="0.5" cy="0.5" r="0.393" gradientTransform="matrix(1.854, 0.425, -0.871, 0.905, -113.176, -15.951)" gradientUnits="objectBoundingBox">
      <stop offset="0" stop-color="#fff"/>
      <stop offset="0.434" stop-color="#ffca07"/>
      <stop offset="1" stop-color="#f48020"/>
    </radialGradient>
    <radialGradient id="radial-gradient-18" cx="0.499" cy="0.5" r="0.409" gradientTransform="matrix(1.559, 0.425, -0.732, 0.905, -322.386, -53.18)" xlink:href="#radial-gradient-17"/>
    <radialGradient id="radial-gradient-19" cx="1600.572" cy="424.423" r="1304.521" gradientTransform="matrix(1.664, -0.11, 0.199, 1.077, -7139.33, 816.342)" xlink:href="#radial-gradient-17"/>
    <radialGradient id="radial-gradient-20" cx="-2025.742" cy="137.093" r="1706.485" gradientTransform="matrix(1.656, -0.144, 0.259, 1.063, -3692.911, 480.604)" xlink:href="#radial-gradient-17"/>
    <radialGradient id="radial-gradient-21" cx="0.493" cy="0.5" r="0.354" gradientTransform="matrix(25.474, 0.425, -11.967, 0.905, -12223.803, -168.785)" xlink:href="#radial-gradient-17"/>
    <radialGradient id="radial-gradient-22" cx="1.019" cy="0.5" r="0.353" gradientUnits="objectBoundingBox">
      <stop offset="0.027" stop-color="#fff"/>
      <stop offset="0.335" stop-color="#46a6dd"/>
      <stop offset="1" stop-color="#242264"/>
    </radialGradient>
    <radialGradient id="radial-gradient-23" cx="0.5" cy="0.5" r="0.366" gradientTransform="matrix(3.378, 0.425, -1.587, 0.905, -671.092, -53.901)" xlink:href="#radial-gradient-17"/>
    <radialGradient id="radial-gradient-24" cx="0.502" cy="0.5" r="0.354" gradientTransform="matrix(12.718, 0.425, -5.975, 0.905, -4115.602, -103.512)" xlink:href="#radial-gradient-17"/>
    <radialGradient id="radial-gradient-25" cx="0.499" cy="0.5" r="0.358" gradientTransform="matrix(6.113, 0.425, -2.872, 0.905, -1461.128, -69.171)" xlink:href="#radial-gradient-17"/>
    <radialGradient id="radial-gradient-26" cx="0.5" cy="0.5" r="0.36" gradientTransform="matrix(4.911, 0.425, -2.307, 0.905, -1083.812, -62.262)" xlink:href="#radial-gradient-17"/>
    <radialGradient id="radial-gradient-27" cx="0.5" cy="0.5" r="0.363" gradientTransform="matrix(4.001, 0.425, -1.88, 0.905, -829.507, -57.19)" xlink:href="#radial-gradient-17"/>
    <radialGradient id="radial-gradient-28" cx="0.499" cy="0.5" r="0.356" gradientTransform="matrix(8.115, 0.425, -3.812, 0.905, -2154.441, -79.677)" xlink:href="#radial-gradient-17"/>
    <radialGradient id="radial-gradient-29" cx="0.5" cy="0.5" r="0.37" gradientTransform="matrix(2.929, 0.425, -1.376, 0.905, -555.859, -50.864)" xlink:href="#radial-gradient-17"/>
    <radialGradient id="radial-gradient-30" cx="0.5" cy="0.5" r="0.397" gradientTransform="matrix(1.782, 0.425, -0.837, 0.905, -55.147, -8.148)" xlink:href="#radial-gradient-17"/>
    <radialGradient id="radial-gradient-31" cx="0.5" cy="0.5" r="0.376" gradientTransform="matrix(2.513, 0.425, -1.181, 0.905, -465.799, -49.025)" xlink:href="#radial-gradient-17"/>
    <radialGradient id="radial-gradient-32" cx="0.502" cy="0.498" r="0.374" gradientTransform="matrix(-2.91, 0.11, -0.321, -0.994, -209907.891, 1663.474)" xlink:href="#radial-gradient-17"/>
    <radialGradient id="radial-gradient-33" cx="1198.872" cy="84.327" r="465.039" gradientTransform="matrix(-2.876, -0.187, 0.605, -1.086, -259613, -20126.297)" xlink:href="#radial-gradient-17"/>
    <radialGradient id="radial-gradient-34" cx="0.504" cy="0.498" r="0.363" gradientTransform="matrix(-4.152, 0.11, -0.459, -0.994, -186360.281, 2028.909)" xlink:href="#radial-gradient-17"/>
    <radialGradient id="radial-gradient-35" cx="785.128" cy="52.616" r="206.616" gradientTransform="matrix(-4.103, -0.187, 0.863, -1.086, -230794.453, -12015.63)" xlink:href="#radial-gradient-17"/>
    <radialGradient id="radial-gradient-36" cx="0.496" cy="0.501" r="0.386" gradientTransform="matrix(-2.299, 0.11, -0.254, -0.994, -299109.469, 793.45)" xlink:href="#radial-gradient-17"/>
    <radialGradient id="radial-gradient-37" cx="1783.963" cy="113.401" r="888.368" gradientTransform="matrix(-2.272, -0.187, 0.478, -1.086, -368294.563, -37195.648)" xlink:href="#radial-gradient-17"/>
    <radialGradient id="radial-gradient-38" cx="0.457" cy="0.495" r="0.598" gradientTransform="matrix(-0.788, 0.11, -0.087, -0.994, -520527.438, -54092)" xlink:href="#radial-gradient-17"/>
    <radialGradient id="radial-gradient-39" cx="0.457" cy="0.495" r="0.585" gradientTransform="matrix(-0.779, -0.187, 0.164, -1.086, -621603.938, -210096.953)" xlink:href="#radial-gradient-17"/>
    <radialGradient id="radial-gradient-40" cx="0.495" cy="0.5" r="0.364" gradientTransform="matrix(-3.636, 0.11, -0.402, -0.994, -209764.5, 2152.393)" xlink:href="#radial-gradient-17"/>
    <radialGradient id="radial-gradient-41" cx="864.999" cy="64.67" r="266.072" gradientTransform="matrix(-3.594, -0.187, 0.756, -1.086, -258848.297, -15623.695)" xlink:href="#radial-gradient-17"/>
    <radialGradient id="radial-gradient-42" cx="0.506" cy="0.501" r="0.354" gradientTransform="matrix(1, 0, 0, 1, 0, 0)" xlink:href="#radial-gradient-17"/>
    <radialGradient id="radial-gradient-43" cx="1835.879" cy="38.55" r="78.381" gradientTransform="matrix(1, 0, 0, 1, 0, 0)" xlink:href="#radial-gradient-17"/>
    <radialGradient id="radial-gradient-44" cx="0.485" cy="0.5" r="0.354" xlink:href="#radial-gradient-22"/>
    <radialGradient id="radial-gradient-45" cx="10158.392" cy="34.817" r="70.364" xlink:href="#radial-gradient-22"/>
    <radialGradient id="radial-gradient-46" cx="0.486" cy="0.501" r="0.354" gradientTransform="matrix(1, 0, 0, 1, 0, 0)" xlink:href="#radial-gradient-17"/>
    <radialGradient id="radial-gradient-47" cx="568.222" cy="48.682" r="58.826" gradientTransform="matrix(1, 0, 0, 1, 0, 0)" xlink:href="#radial-gradient-17"/>
    <radialGradient id="radial-gradient-48" cx="0.492" cy="0.5" r="0.354" xlink:href="#radial-gradient-22"/>
    <radialGradient id="radial-gradient-49" cx="1291.261" cy="33.317" r="55.041" xlink:href="#radial-gradient-22"/>
    <radialGradient id="radial-gradient-50" cx="0.48" cy="0.5" r="0.356" gradientTransform="matrix(-7.787, 0.11, -0.86, -0.994, -362820.531, 3386.839)" xlink:href="#radial-gradient-17"/>
    <radialGradient id="radial-gradient-51" cx="842.029" cy="43.652" r="116.95" gradientTransform="matrix(-7.696, -0.187, 1.619, -1.086, -449779.969, -11826.885)" xlink:href="#radial-gradient-17"/>
    <radialGradient id="radial-gradient-52" cx="0.492" cy="0.5" r="0.357" gradientTransform="matrix(-6.054, 0.11, -0.669, -0.994, -291419.313, 3036.525)" xlink:href="#radial-gradient-17"/>
    <radialGradient id="radial-gradient-53" cx="745.789" cy="49.221" r="136.286" gradientTransform="matrix(-5.983, -0.187, 1.259, -1.086, -360014.969, -12414.507)" xlink:href="#radial-gradient-17"/>
    <radialGradient id="radial-gradient-54" cx="4.509" cy="4.93" r="6.035" gradientTransform="matrix(-1.046, 0.165, -0.191, -1.082, -555.954, -56.126)" xlink:href="#radial-gradient-17"/>
    <radialGradient id="radial-gradient-55" cx="8.003" cy="10.526" r="16.159" gradientTransform="matrix(-0.891, 0.165, -0.163, -1.082, -1179.367, -172.911)" xlink:href="#radial-gradient-17"/>
    <radialGradient id="radial-gradient-56" cx="21.305" cy="-59.736" r="122.54" gradientTransform="matrix(-0.258, 0.165, -0.047, -1.082, -1733.661, -2134.469)" xlink:href="#radial-gradient-17"/>
    <radialGradient id="radial-gradient-57" cx="36.192" cy="-122.066" r="257.365" gradientTransform="matrix(-0.19, 0.165, -0.035, -1.082, -2573.593, -4688.338)" xlink:href="#radial-gradient-17"/>
    <radialGradient id="radial-gradient-58" cx="224.84" cy="68.966" r="59.458" gradientTransform="matrix(-4.33, 0.165, -0.793, -1.082, -58594.051, 848.094)" xlink:href="#radial-gradient-17"/>
    <radialGradient id="radial-gradient-59" cx="192.691" cy="56.648" r="35.658" gradientTransform="matrix(-6.133, 0.165, -1.123, -1.082, -66039.492, 983.332)" xlink:href="#radial-gradient-17"/>
    <radialGradient id="radial-gradient-60" cx="14.943" cy="-346.638" r="251.873" gradientTransform="matrix(-0.191, 0.11, -0.021, -0.994, -2561.749, -3696.55)" xlink:href="#radial-gradient-17"/>
    <radialGradient id="radial-gradient-61" cx="8.027" cy="-219.574" r="162.917" gradientTransform="matrix(-0.273, 0.11, -0.03, -0.994, -2508.863, -2297.199)" xlink:href="#radial-gradient-17"/>
    <radialGradient id="radial-gradient-62" cx="6.575" cy="-161.227" r="118.199" gradientTransform="matrix(-0.214, 0.11, -0.024, -0.994, -1359.342, -1699.501)" xlink:href="#radial-gradient-17"/>
    <radialGradient id="radial-gradient-63" cx="27.785" cy="3.861" r="3.06" gradientTransform="matrix(-18.439, 0.11, -2.037, -0.994, -46935.945, 234.522)" xlink:href="#radial-gradient-17"/>
    <radialGradient id="radial-gradient-64" cx="-0.102" cy="0.073" r="4.264" gradientTransform="matrix(-0.862, 0.11, -0.095, -0.994, -298.633, -35.481)" xlink:href="#radial-gradient-17"/>
    <radialGradient id="radial-gradient-65" cx="639.016" cy="205.556" r="266.074" gradientTransform="matrix(-5.654, 0.11, -0.625, -0.994, -441214.219, 4260.059)" xlink:href="#radial-gradient-17"/>
    <radialGradient id="radial-gradient-66" cx="15.486" cy="46.856" r="36.112" gradientTransform="matrix(-0.854, 0.11, -0.094, -0.994, -2464.881, -211.549)" xlink:href="#radial-gradient-17"/>
  </defs>
  <g id="Logo" transform="translate(-974.2 -607.886)">
    <g id="Group_1987" data-name="Group 1987" transform="translate(974.2 611.422)">
      <g id="Group_1986" data-name="Group 1986" transform="translate(0.032 0.031)" opacity="0.8" style="mix-blend-mode: screen;isolation: isolate">
        <path id="Path_7101" data-name="Path 7101" d="M990.9,655.4c-.346-.009-.655-.023-.943-.045l-.054,0c-.292-.022-.608-.054-.963-.1l-.241-.033-.082-.011q-.332-.046-.661-.1l-.057-.01c-.095-.016-.189-.032-.284-.051-.259-.049-.515-.1-.77-.164l-.272-.065c-.262-.065-.521-.135-.777-.212-.121-.036-.239-.072-.359-.11l-.046-.015c-.168-.053-.335-.105-.5-.165l-.155-.051c-.07-.023-.139-.045-.208-.071l-.218-.08c-.133-.048-.264-.1-.395-.151a13.492,13.492,0,0,1-3.6-2.1l-.084,0v-.019c.015,0,.026-.011.029-.025l0-.019-.015-.013.025-2.122.162.022-.08-.067a18.364,18.364,0,0,1-3.056-3.3,5.25,5.25,0,0,1-1.843-.82c-.033-.023-.063-.045-.088-.065-.75-.611-3.015-3.9-3.284-8.525-.016-.274-.024-.549-.028-.823l0-.177c0-.275,0-.549.009-.824l0-.04c.009-.265.023-.531.042-.794l.012-.156c.022-.273.047-.546.08-.818l.012-.1c.03-.246.065-.49.1-.735l.025-.161q.065-.392.143-.782l.036-.172c.045-.214.094-.428.145-.641l.046-.195q.091-.361.193-.717l.076-.257c.051-.171.1-.341.161-.51,0,0,.065-.2.086-.263q.107-.315.224-.625c.043-.117.089-.232.134-.348s.092-.23.14-.344q.134-.325.279-.643l.109-.24c.068-.146.138-.29.209-.434l.07-.138c.155-.307.315-.606.477-.891q.506-.887,1.021-1.616l.006,0a16.277,16.277,0,0,1,2.724-3l.008-.007.013-.029.068-.058.056-.044c.037-.033.072-.066.109-.1l.05-.027,2.349.514-.074.195.209-.155c.085-.064.17-.126.257-.188a18.2,18.2,0,0,1,10.462-3.3,18.427,18.427,0,0,1,4.879.658,7.942,7.942,0,0,1,.933-.06,5.23,5.23,0,0,1,.713.047c1.273.178,6,2.18,9.177,6.728,4.267,6.116,5.2,14.385,2.324,20.577l-.005.011.009.024-.048.082c-.056.111-.111.221-.17.331l-3.033.89-.016-.107-.043.059a18.26,18.26,0,0,1-3.168,3.3c-.048.118-.091.22-.136.315-.013.03-.025.055-.036.078a9.549,9.549,0,0,1-2.823,2.644,12.522,12.522,0,0,1-3.908,1.85c-.348.091-.706.174-1.065.245l-.453.091q-.373.074-.749.134l-.057.01c-.073.012-.146.024-.219.034a19.853,19.853,0,0,1-2,.183l-.283.008c-.175,0-.35.006-.525.006Zm-8.387-3.9.011.06.409-.077.1-.02-.095-.038-.011-.006Z" transform="translate(-972.049 -617.267)" fill="#fff"/>
      </g>
      <path id="Path_7102" data-name="Path 7102" d="M1011.5,625.008a18.346,18.346,0,1,1-25.544-4.548A18.348,18.348,0,0,1,1011.5,625.008Z" transform="translate(-976.331 -617.158)" fill="url(#radial-gradient)"/>
      <path id="Path_7103" data-name="Path 7103" d="M1085.42,704.685c.221-.192.948-.765,1.1-.935a9.305,9.305,0,0,0-2.538-5.613A8.943,8.943,0,0,1,1085.42,704.685Z" transform="translate(-1051.794 -674.871)" fill="#009147" opacity="0.4" style="mix-blend-mode: multiply;isolation: isolate"/>
      <path id="Path_7104" data-name="Path 7104" d="M1082.612,689.3c.376.2.744.43,1.1.669A12.171,12.171,0,0,0,1082.612,689.3Z" transform="translate(-1050.814 -668.575)" fill="none"/>
      <path id="Path_7105" data-name="Path 7105" d="M1081.3,688.627c.116.058.234.115.348.179C1081.532,688.743,1081.417,688.685,1081.3,688.627Z" transform="translate(-1049.88 -668.094)" fill="none"/>
      <path id="Path_7106" data-name="Path 7106" d="M1082.511,689.249l.029.016Z" transform="translate(-1050.743 -668.537)" fill="url(#radial-gradient-2)"/>
      <path id="Path_7107" data-name="Path 7107" d="M1082.511,689.249l.029.016Z" transform="translate(-1050.743 -668.537)" fill="url(#radial-gradient-3)"/>
      <path id="Path_7108" data-name="Path 7108" d="M1086.451,691.633a14.851,14.851,0,0,1,4.968,6.825c.025.072.046.149.072.221A12.981,12.981,0,0,0,1086.451,691.633Z" transform="translate(-1053.551 -670.236)" fill="url(#radial-gradient-4)"/>
      <path id="Path_7109" data-name="Path 7109" d="M1096.346,701.6c.062.094.124.187.185.282C1096.471,701.785,1096.408,701.692,1096.346,701.6Z" transform="translate(-1060.603 -677.338)" fill="none"/>
      <path id="Path_7110" data-name="Path 7110" d="M1097.272,703.044c.057.093.113.185.168.28C1097.385,703.229,1097.329,703.136,1097.272,703.044Z" transform="translate(-1061.263 -678.368)" fill="none"/>
      <path id="Path_7111" data-name="Path 7111" d="M1090.026,694.4c.1.088.2.177.3.269C1090.225,694.58,1090.126,694.491,1090.026,694.4Z" transform="translate(-1056.098 -672.21)" fill="none"/>
      <path id="Path_7112" data-name="Path 7112" d="M1098.164,704.572c.05.091.1.18.149.273C1098.265,704.752,1098.214,704.663,1098.164,704.572Z" transform="translate(-1061.898 -679.457)" fill="none"/>
      <path id="Path_7113" data-name="Path 7113" d="M1095.38,700.233q.1.141.2.282Q1095.485,700.373,1095.38,700.233Z" transform="translate(-1059.914 -676.365)" fill="none"/>
      <path id="Path_7114" data-name="Path 7114" d="M1099.015,706.191c.045.086.089.173.131.263C1099.1,706.364,1099.06,706.277,1099.015,706.191Z" transform="translate(-1062.505 -680.611)" fill="none"/>
      <path id="Path_7115" data-name="Path 7115" d="M1093.345,697.715q.121.134.239.277Q1093.466,697.849,1093.345,697.715Z" transform="translate(-1058.464 -674.57)" fill="none"/>
      <path id="Path_7116" data-name="Path 7116" d="M1092.271,696.543c.087.091.173.182.258.277C1092.444,696.725,1092.358,696.634,1092.271,696.543Z" transform="translate(-1057.698 -673.735)" fill="none"/>
      <path id="Path_7117" data-name="Path 7117" d="M1091.166,695.442c.093.089.186.181.277.275C1091.352,695.623,1091.259,695.531,1091.166,695.442Z" transform="translate(-1056.911 -672.951)" fill="none"/>
      <path id="Path_7118" data-name="Path 7118" d="M1094.381,698.935c.074.093.149.186.221.281C1094.53,699.121,1094.455,699.028,1094.381,698.935Z" transform="translate(-1059.202 -675.44)" fill="none"/>
      <path id="Path_7119" data-name="Path 7119" d="M1088.861,693.422c.106.086.211.173.314.263C1089.072,693.595,1088.967,693.508,1088.861,693.422Z" transform="translate(-1055.268 -671.511)" fill="none"/>
      <path id="Path_7120" data-name="Path 7120" d="M1080.7,688.354l.029.016c.376.2.744.43,1.1.669q.175.12.346.246a12.476,12.476,0,0,0-2.206-1.292c.127.061.255.118.38.182S1080.59,688.29,1080.7,688.354Z" transform="translate(-1048.936 -667.642)" fill="none"/>
      <path id="Path_7121" data-name="Path 7121" d="M1087.664,692.5q.168.124.332.255Q1087.832,692.625,1087.664,692.5Z" transform="translate(-1054.415 -670.854)" fill="none"/>
      <path id="Path_7122" data-name="Path 7122" d="M1100.632,709.763c.029.071.058.139.085.21C1100.69,709.9,1100.661,709.834,1100.632,709.763Z" transform="translate(-1063.657 -683.157)" fill="none"/>
      <path id="Path_7123" data-name="Path 7123" d="M1099.828,707.892c.039.083.077.165.113.249C1099.9,708.057,1099.867,707.975,1099.828,707.892Z" transform="translate(-1063.084 -681.824)" fill="none"/>
      <path id="Path_7124" data-name="Path 7124" d="M1089.955,694.337l.021.019Z" transform="translate(-1056.048 -672.163)" fill="url(#linear-gradient)"/>
      <path id="Path_7125" data-name="Path 7125" d="M1089.955,694.337l.021.019Z" transform="translate(-1056.048 -672.163)" fill="url(#radial-gradient-5)" style="mix-blend-mode: multiply;isolation: isolate"/>
      <path id="Path_7126" data-name="Path 7126" d="M1092.129,696.4l.041.041Z" transform="translate(-1057.597 -673.633)" fill="url(#linear-gradient-2)"/>
      <path id="Path_7127" data-name="Path 7127" d="M1092.129,696.4l.041.041Z" transform="translate(-1057.597 -673.633)" fill="url(#radial-gradient-6)" style="mix-blend-mode: multiply;isolation: isolate"/>
      <path id="Path_7128" data-name="Path 7128" d="M1088.819,693.388l.012.01Z" transform="translate(-1055.238 -671.487)" fill="url(#linear-gradient-3)"/>
      <path id="Path_7129" data-name="Path 7129" d="M1088.819,693.388l.012.01Z" transform="translate(-1055.238 -671.487)" fill="url(#radial-gradient-7)" style="mix-blend-mode: multiply;isolation: isolate"/>
      <path id="Path_7130" data-name="Path 7130" d="M1087.654,692.489l0,0Z" transform="translate(-1054.408 -670.846)" fill="url(#linear-gradient-4)"/>
      <path id="Path_7131" data-name="Path 7131" d="M1087.654,692.489l0,0Z" transform="translate(-1054.408 -670.846)" fill="url(#radial-gradient-8)" style="mix-blend-mode: multiply;isolation: isolate"/>
      <path id="Path_7132" data-name="Path 7132" d="M1091.057,695.34a.353.353,0,0,0,.031.029A.353.353,0,0,1,1091.057,695.34Z" transform="translate(-1056.833 -672.878)" fill="url(#linear-gradient-5)"/>
      <path id="Path_7133" data-name="Path 7133" d="M1091.057,695.34a.353.353,0,0,0,.031.029A.353.353,0,0,1,1091.057,695.34Z" transform="translate(-1056.833 -672.878)" fill="url(#radial-gradient-9)" style="mix-blend-mode: multiply;isolation: isolate"/>
      <path id="Path_7134" data-name="Path 7134" d="M1096.088,701.215c.024.037.049.073.074.11Z" transform="translate(-1060.419 -677.065)" fill="url(#linear-gradient-6)"/>
      <path id="Path_7135" data-name="Path 7135" d="M1096.088,701.215c.024.037.049.073.074.11Z" transform="translate(-1060.419 -677.065)" fill="url(#radial-gradient-10)" style="mix-blend-mode: multiply;isolation: isolate"/>
      <path id="Path_7136" data-name="Path 7136" d="M1098.683,705.524c.033.063.063.126.1.192C1098.746,705.65,1098.716,705.587,1098.683,705.524Z" transform="translate(-1062.268 -680.136)" fill="url(#linear-gradient-7)"/>
      <path id="Path_7137" data-name="Path 7137" d="M1098.683,705.524c.033.063.063.126.1.192C1098.746,705.65,1098.716,705.587,1098.683,705.524Z" transform="translate(-1062.268 -680.136)" fill="url(#radial-gradient-11)" style="mix-blend-mode: multiply;isolation: isolate"/>
      <path id="Path_7138" data-name="Path 7138" d="M1099.472,707.107c.035.073.069.151.1.226C1099.542,707.258,1099.507,707.18,1099.472,707.107Z" transform="translate(-1062.831 -681.264)" fill="url(#linear-gradient-8)"/>
      <path id="Path_7139" data-name="Path 7139" d="M1096.991,702.58l.081.133Z" transform="translate(-1061.062 -678.038)" fill="url(#linear-gradient-9)"/>
      <path id="Path_7140" data-name="Path 7140" d="M1096.991,702.58l.081.133Z" transform="translate(-1061.062 -678.038)" fill="url(#radial-gradient-12)" style="mix-blend-mode: multiply;isolation: isolate"/>
      <path id="Path_7141" data-name="Path 7141" d="M1095.149,699.912l.066.092Z" transform="translate(-1059.75 -676.136)" fill="url(#linear-gradient-10)"/>
      <path id="Path_7142" data-name="Path 7142" d="M1095.149,699.912l.066.092Z" transform="translate(-1059.75 -676.136)" fill="url(#radial-gradient-13)" style="mix-blend-mode: multiply;isolation: isolate"/>
      <path id="Path_7143" data-name="Path 7143" d="M1097.856,704.02c.03.051.06.107.089.159C1097.915,704.127,1097.886,704.071,1097.856,704.02Z" transform="translate(-1061.679 -679.064)" fill="url(#linear-gradient-11)"/>
      <path id="Path_7144" data-name="Path 7144" d="M1097.856,704.02c.03.051.06.107.089.159C1097.915,704.127,1097.886,704.071,1097.856,704.02Z" transform="translate(-1061.679 -679.064)" fill="url(#radial-gradient-14)" style="mix-blend-mode: multiply;isolation: isolate"/>
      <path id="Path_7145" data-name="Path 7145" d="M1094.177,698.681c.019.024.039.05.059.073C1094.216,698.731,1094.2,698.7,1094.177,698.681Z" transform="translate(-1059.057 -675.259)" fill="url(#linear-gradient-12)"/>
      <path id="Path_7146" data-name="Path 7146" d="M1094.177,698.681c.019.024.039.05.059.073C1094.216,698.731,1094.2,698.7,1094.177,698.681Z" transform="translate(-1059.057 -675.259)" fill="url(#radial-gradient-15)" style="mix-blend-mode: multiply;isolation: isolate"/>
      <path id="Path_7147" data-name="Path 7147" d="M1093.169,697.507c.017.019.034.038.051.06C1093.2,697.545,1093.186,697.527,1093.169,697.507Z" transform="translate(-1058.338 -674.422)" fill="url(#linear-gradient-13)"/>
      <path id="Path_7148" data-name="Path 7148" d="M1093.169,697.507c.017.019.034.038.051.06C1093.2,697.545,1093.186,697.527,1093.169,697.507Z" transform="translate(-1058.338 -674.422)" fill="url(#radial-gradient-16)" style="mix-blend-mode: multiply;isolation: isolate"/>
      <path id="Path_7149" data-name="Path 7149" d="M1032.979,619.29c-1.894-.265-4.84.6-7.182,2.207-3.9,2.81-6.44,7.4-5.3,10.942a3.8,3.8,0,0,0,.455.915,6.275,6.275,0,0,0,.5.65,5.78,5.78,0,0,0,.48.492c.145.132.3.256.467.379l.008.006a7.228,7.228,0,0,0,1.067.645c.057.028.114.057.172.084.092.043.187.083.283.124.078.032.158.065.24.1s.18.067.271.1.2.067.3.1c.085.027.171.055.258.078.125.036.253.07.383.1.073.017.144.037.22.056.166.039.339.072.513.1.332.057.666.115,1,.169,1.231.2,2.438.4,3.609.609.519.091,1.033.187,1.538.288,3.931.8,7.351,2.011,9.63,5.165a23.071,23.071,0,0,1,2.41,4.487c3.115-6.2,2.349-14.663-2.111-21.056A17.2,17.2,0,0,0,1032.979,619.29Z" transform="translate(-1006.349 -618.644)" fill="#3226ff"/>
      <path id="Path_7150" data-name="Path 7150" d="M1043.236,651.5a25.221,25.221,0,0,0-1.877-3.347c-2.263-3.354-5.76-4.608-9.8-5.413-1.484-.3-3.04-.533-4.636-.793-.451-.073-.9-.148-1.362-.227-.222-.036-.436-.081-.644-.128-.074-.017-.146-.036-.219-.054-.129-.032-.257-.064-.381-.1-.086-.024-.172-.05-.258-.078s-.2-.064-.3-.1-.182-.065-.27-.1-.161-.064-.24-.1c-.094-.039-.191-.08-.282-.122l-.17-.084a7.081,7.081,0,0,1-1.065-.64l-.009-.005c-.162-.121-.319-.244-.463-.375a5.682,5.682,0,0,1-.478-.488c-.1-.116-.2-.234-.287-.354a4.013,4.013,0,0,1-.657-1.2c-1.127-3.524,1.416-8.106,5.32-10.914-4.069,2.787-6.77,7.509-5.616,11.119a4.527,4.527,0,0,0,.944,1.557,5.814,5.814,0,0,0,.477.489c.146.131.3.255.464.376a.015.015,0,0,1,.008,0,6.9,6.9,0,0,0,1.065.64c.057.028.113.057.171.084.092.042.187.081.282.123.079.034.158.065.24.1s.18.067.272.1.2.067.3.1c.084.025.17.054.257.078.123.035.252.067.38.1.074.017.144.037.22.054.208.047.422.09.644.129l.369.061c.332.055.664.113.994.166.214.034.424.069.638.1q.941.151,1.86.3c.4.1.8.211,1.195.323a13.107,13.107,0,0,1,8.241,5.355,13.565,13.565,0,0,1,1.968,5.205l3.085-.914C1043.68,652.447,1043.5,652.029,1043.236,651.5Z" transform="translate(-1005.673 -624.086)" fill="#0b01b4"/>
      <path id="Path_7151" data-name="Path 7151" d="M1000.829,726.636c.206.252.542.7.726.884a8.978,8.978,0,0,0,5.565-1.142A9.713,9.713,0,0,1,1000.829,726.636Z" transform="translate(-992.528 -694.998)" fill="#c2c2c2" opacity="0.4" style="mix-blend-mode: multiply;isolation: isolate"/>
      <path id="Path_7152" data-name="Path 7152" d="M1022.644,737.134h0Z" transform="translate(-1008.074 -702.664)" fill="#fff"/>
      <path id="Path_7153" data-name="Path 7153" d="M1022.644,737.134h0Z" transform="translate(-1008.074 -702.664)" fill="#fff" style="mix-blend-mode: multiply;isolation: isolate"/>
      <path id="Path_7154" data-name="Path 7154" d="M1015.651,693.755a4.475,4.475,0,0,0-3.314,1.693c-.041.05-.09.1-.133.15s-.093.11-.137.168-.076.1-.115.148l-.154.224c-.026.042-.058.084-.084.128-.08.124-.156.251-.233.384-.042.075-.083.149-.123.224l-.332.6c-.072.131-.141.257-.21.387-.333.61-.66,1.212-.992,1.791l-.114.194a9.568,9.568,0,0,1-5.671,4.083,12.078,12.078,0,0,1-4.323.2l-.162,2.181s-.178,0-.178.006v.008h.21a20.987,20.987,0,0,0,3.3-.485c.038-.008.127-.016.166-.026.085-.019.192-.04.276-.06.032-.01.077-.017.11-.026l.261-.073.086-.026.076-.024c.072-.022.142-.045.212-.068l.04-.014.049-.018a8.026,8.026,0,0,0,2.414-1.344c.177-.12.306-.209.308-.209.072-.062.126-.144.2-.207s.138-.147.211-.217c.029-.029.055-.06.083-.089.15-.153.3-.311.437-.473.076-.086.151-.175.225-.264.121-.148.241-.3.357-.453.088-.116.173-.234.257-.353.059-.083.116-.166.174-.25.148-.216.294-.437.435-.662l.037-.059c.084-.133.167-.263.25-.4.125-.207.245-.42.368-.631.337-.588.669-1.2,1.007-1.814l-.038.056.235-.431c.15-.272.3-.545.455-.822.076-.133.153-.262.231-.385.028-.044.058-.085.087-.128l.153-.225c.037-.051.076-.1.114-.148s.09-.115.136-.169.088-.1.131-.155.081-.089.123-.131.1-.1.151-.155a4.852,4.852,0,0,1,3.026-1.339c2.883.03,6.038,2.494,7.086,5.667C1021.766,696.544,1018.605,693.755,1015.651,693.755Z" transform="translate(-991.492 -671.748)" fill="#c2c2c2"/>
      <path id="Path_7155" data-name="Path 7155" d="M1023.922,705.222a6.873,6.873,0,0,0-.13-5.093c-1.281-3.1-4.189-5.683-7.087-5.675a4.467,4.467,0,0,0-.781.106,4.826,4.826,0,0,0-2.251,1.291c-.052.051-.107.1-.158.149s-.087.082-.127.13-.092.1-.135.153-.095.111-.139.17-.077.1-.115.151c-.052.073-.106.148-.157.226-.028.043-.059.084-.087.129-.065.1-.126.206-.188.311-.113.2-.228.406-.338.609-.414.754-.813,1.495-1.223,2.2-.178.317-.358.631-.542.934-1.43,2.375-3.068,4.334-5.916,5.157a20.211,20.211,0,0,1-3.879.634c3.988,3.286,10.5,4.534,16.246,2.968A12.631,12.631,0,0,0,1023.922,705.222Z" transform="translate(-992.414 -672.246)" fill="#fff"/>
      <path id="Path_7156" data-name="Path 7156" d="M1001.684,629.334c-.335.179-1.244.815-1.5.985a10.94,10.94,0,0,0,.387,7.554A12.065,12.065,0,0,1,1001.684,629.334Z" transform="translate(-991.718 -625.836)" fill="#f05a26" opacity="0.63" style="mix-blend-mode: multiply;isolation: isolate"/>
      <path id="Path_7157" data-name="Path 7157" d="M998.126,653.383c-.162-.3-.31-.6-.449-.92A9.79,9.79,0,0,0,998.126,653.383Z" transform="translate(-990.282 -642.32)" fill="url(#radial-gradient-17)"/>
      <path id="Path_7158" data-name="Path 7158" d="M999.44,656.006c-.051-.087-.1-.175-.154-.265C999.336,655.831,999.388,655.92,999.44,656.006Z" transform="translate(-991.429 -644.656)" fill="url(#radial-gradient-18)"/>
      <path id="Path_7159" data-name="Path 7159" d="M999.253,655.686a.208.208,0,0,1-.013-.022A.208.208,0,0,0,999.253,655.686Z" transform="translate(-991.396 -644.601)" fill="url(#radial-gradient-19)"/>
      <path id="Path_7160" data-name="Path 7160" d="M999.253,655.686a.208.208,0,0,1-.013-.022A.208.208,0,0,0,999.253,655.686Z" transform="translate(-991.396 -644.601)" fill="url(#radial-gradient-20)"/>
      <path id="Path_7161" data-name="Path 7161" d="M995.172,640.508c0-.094-.008-.187-.01-.283C995.164,640.319,995.167,640.414,995.172,640.508Z" transform="translate(-988.49 -633.598)" fill="url(#radial-gradient-21)"/>
      <path id="Path_7162" data-name="Path 7162" d="M995.163,639.086q0-.137,0-.275Q995.162,638.949,995.163,639.086Z" transform="translate(-988.49 -632.59)" fill="url(#radial-gradient-22)"/>
      <path id="Path_7163" data-name="Path 7163" d="M996.244,648.243c-.029-.1-.059-.207-.084-.313C996.184,648.036,996.215,648.143,996.244,648.243Z" transform="translate(-989.201 -639.089)" fill="url(#radial-gradient-23)"/>
      <path id="Path_7164" data-name="Path 7164" d="M995.233,641.883c-.009-.1-.016-.192-.021-.291C995.217,641.69,995.224,641.787,995.233,641.883Z" transform="translate(-988.525 -634.572)" fill="url(#radial-gradient-24)"/>
      <path id="Path_7165" data-name="Path 7165" d="M995.5,644.535c-.016-.1-.032-.2-.045-.3C995.469,644.334,995.484,644.435,995.5,644.535Z" transform="translate(-988.699 -636.455)" fill="url(#radial-gradient-25)"/>
      <path id="Path_7166" data-name="Path 7166" d="M995.7,645.8c-.02-.1-.039-.2-.057-.307C995.664,645.6,995.682,645.7,995.7,645.8Z" transform="translate(-988.835 -637.353)" fill="url(#radial-gradient-26)"/>
      <path id="Path_7167" data-name="Path 7167" d="M995.953,647.041c-.026-.1-.05-.206-.07-.311C995.9,646.835,995.927,646.938,995.953,647.041Z" transform="translate(-989.003 -638.234)" fill="url(#radial-gradient-27)"/>
      <path id="Path_7168" data-name="Path 7168" d="M995.339,643.225c-.012-.1-.023-.195-.033-.3C995.316,643.03,995.327,643.127,995.339,643.225Z" transform="translate(-988.592 -635.525)" fill="url(#radial-gradient-28)"/>
      <path id="Path_7169" data-name="Path 7169" d="M996.578,649.418c-.034-.106-.068-.211-.1-.319C996.509,649.206,996.543,649.312,996.578,649.418Z" transform="translate(-989.428 -639.922)" fill="url(#radial-gradient-29)"/>
      <path id="Path_7170" data-name="Path 7170" d="M997.826,652.62a.207.207,0,0,1-.013-.022c-.162-.3-.31-.6-.449-.92-.043-.1-.086-.21-.126-.316a9.589,9.589,0,0,0,.916,1.8c-.057-.092-.117-.184-.174-.281S997.876,652.71,997.826,652.62Z" transform="translate(-989.969 -641.535)" fill="url(#radial-gradient-30)"/>
      <path id="Path_7171" data-name="Path 7171" d="M996.952,650.564c-.04-.1-.078-.21-.114-.318C996.874,650.354,996.912,650.46,996.952,650.564Z" transform="translate(-989.684 -640.74)" fill="url(#radial-gradient-31)"/>
      <path id="Path_7172" data-name="Path 7172" d="M996.46,649.043a.2.2,0,0,1-.008-.023A.2.2,0,0,0,996.46,649.043Z" transform="translate(-989.409 -639.866)" fill="url(#radial-gradient-32)"/>
      <path id="Path_7173" data-name="Path 7173" d="M996.46,649.043a.2.2,0,0,1-.008-.023A.2.2,0,0,0,996.46,649.043Z" transform="translate(-989.409 -639.866)" fill="url(#radial-gradient-33)"/>
      <path id="Path_7174" data-name="Path 7174" d="M995.855,646.611c-.006-.016-.007-.031-.012-.048C995.848,646.58,995.849,646.6,995.855,646.611Z" transform="translate(-988.975 -638.115)" fill="url(#radial-gradient-34)"/>
      <path id="Path_7175" data-name="Path 7175" d="M995.855,646.611c-.006-.016-.007-.031-.012-.048C995.848,646.58,995.849,646.6,995.855,646.611Z" transform="translate(-988.975 -638.115)" fill="url(#radial-gradient-35)"/>
      <path id="Path_7176" data-name="Path 7176" d="M996.827,650.22s0-.008,0-.011S996.825,650.215,996.827,650.22Z" transform="translate(-989.673 -640.713)" fill="url(#radial-gradient-36)"/>
      <path id="Path_7177" data-name="Path 7177" d="M996.827,650.22s0-.008,0-.011S996.825,650.215,996.827,650.22Z" transform="translate(-989.673 -640.713)" fill="url(#radial-gradient-37)"/>
      <path id="Path_7178" data-name="Path 7178" d="M998.066,650.925h0Z" transform="translate(-990.559 -641.223)" fill="url(#radial-gradient-38)"/>
      <path id="Path_7179" data-name="Path 7179" d="M998.066,650.925h0Z" transform="translate(-990.559 -641.223)" fill="url(#radial-gradient-39)"/>
      <path id="Path_7180" data-name="Path 7180" d="M996.137,647.847c0-.013-.008-.023-.009-.034C996.13,647.824,996.134,647.834,996.137,647.847Z" transform="translate(-989.178 -639.006)" fill="url(#radial-gradient-40)"/>
      <path id="Path_7181" data-name="Path 7181" d="M996.137,647.847c0-.013-.008-.023-.009-.034C996.13,647.824,996.134,647.834,996.137,647.847Z" transform="translate(-989.178 -639.006)" fill="url(#radial-gradient-41)"/>
      <path id="Path_7182" data-name="Path 7182" d="M995.2,641.32c0-.036,0-.074,0-.109C995.2,641.247,995.2,641.285,995.2,641.32Z" transform="translate(-988.514 -634.3)" fill="url(#radial-gradient-42)"/>
      <path id="Path_7183" data-name="Path 7183" d="M995.2,641.32c0-.036,0-.074,0-.109C995.2,641.247,995.2,641.285,995.2,641.32Z" transform="translate(-988.514 -634.3)" fill="url(#radial-gradient-43)"/>
      <path id="Path_7184" data-name="Path 7184" d="M995.162,639.9c0-.044,0-.088,0-.131C995.163,639.811,995.162,639.855,995.162,639.9Z" transform="translate(-988.49 -633.272)" fill="url(#radial-gradient-44)"/>
      <path id="Path_7185" data-name="Path 7185" d="M995.162,639.9c0-.044,0-.088,0-.131C995.163,639.811,995.162,639.855,995.162,639.9Z" transform="translate(-988.49 -633.272)" fill="url(#radial-gradient-45)" style="mix-blend-mode: multiply;isolation: isolate"/>
      <path id="Path_7186" data-name="Path 7186" d="M995.29,642.7c0-.03,0-.063-.006-.093C995.286,642.635,995.288,642.668,995.29,642.7Z" transform="translate(-988.577 -635.293)" fill="url(#radial-gradient-46)"/>
      <path id="Path_7187" data-name="Path 7187" d="M995.29,642.7c0-.03,0-.063-.006-.093C995.286,642.635,995.288,642.668,995.29,642.7Z" transform="translate(-988.577 -635.293)" fill="url(#radial-gradient-47)"/>
      <path id="Path_7188" data-name="Path 7188" d="M995.165,638.428c0-.05,0-.1.006-.155C995.17,638.324,995.166,638.377,995.165,638.428Z" transform="translate(-988.492 -632.207)" fill="url(#radial-gradient-48)"/>
      <path id="Path_7189" data-name="Path 7189" d="M995.165,638.428c0-.05,0-.1.006-.155C995.17,638.324,995.166,638.377,995.165,638.428Z" transform="translate(-988.492 -632.207)" fill="url(#radial-gradient-49)" style="mix-blend-mode: multiply;isolation: isolate"/>
      <path id="Path_7190" data-name="Path 7190" d="M995.431,644.039c0-.027-.008-.053-.01-.079C995.423,643.986,995.427,644.011,995.431,644.039Z" transform="translate(-988.674 -636.26)" fill="url(#radial-gradient-50)"/>
      <path id="Path_7191" data-name="Path 7191" d="M995.431,644.039c0-.027-.008-.053-.01-.079C995.423,643.986,995.427,644.011,995.431,644.039Z" transform="translate(-988.674 -636.26)" fill="url(#radial-gradient-51)"/>
      <path id="Path_7192" data-name="Path 7192" d="M995.621,645.342c0-.02-.006-.04-.01-.061C995.615,645.3,995.617,645.322,995.621,645.342Z" transform="translate(-988.81 -637.201)" fill="url(#radial-gradient-52)"/>
      <path id="Path_7193" data-name="Path 7193" d="M995.621,645.342c0-.02-.006-.04-.01-.061C995.615,645.3,995.617,645.322,995.621,645.342Z" transform="translate(-988.81 -637.201)" fill="url(#radial-gradient-53)"/>
      <path id="Path_7194" data-name="Path 7194" d="M1004.952,663.265a19.6,19.6,0,0,1-1.97-2.088A14.307,14.307,0,0,0,1004.952,663.265Z" transform="translate(-994.063 -648.53)" fill="url(#radial-gradient-54)" style="mix-blend-mode: multiply;isolation: isolate"/>
      <path id="Path_7195" data-name="Path 7195" d="M1010.7,669.225c-.293-.26-.583-.519-.863-.78.2.174.392.36.591.539C1010.518,669.064,1010.611,669.143,1010.7,669.225Z" transform="translate(-998.949 -653.71)" fill="url(#radial-gradient-55)" style="mix-blend-mode: multiply;isolation: isolate"/>
      <path id="Path_7196" data-name="Path 7196" d="M1004.97,718.1c-.13.036-.263.071-.394.1C1004.707,718.176,1004.839,718.14,1004.97,718.1Z" transform="translate(-995.199 -689.102)" fill="url(#radial-gradient-56)" style="mix-blend-mode: multiply;isolation: isolate"/>
      <path id="Path_7197" data-name="Path 7197" d="M1002.448,718.787c.059-.009.118-.026.176-.038-.084.018-.167.034-.252.049C1002.4,718.792,1002.422,718.791,1002.448,718.787Z" transform="translate(-993.628 -689.561)" fill="url(#radial-gradient-57)" style="mix-blend-mode: multiply;isolation: isolate"/>
      <path id="Path_7198" data-name="Path 7198" d="M995.836,646.5c.008.039.018.078.027.117-.015-.069-.034-.139-.048-.211l.008.046C995.828,646.463,995.831,646.48,995.836,646.5Z" transform="translate(-988.955 -638)" fill="url(#radial-gradient-58)" style="mix-blend-mode: multiply;isolation: isolate"/>
      <path id="Path_7199" data-name="Path 7199" d="M988.171,648.04a5.415,5.415,0,0,0-.779-3.581c-.048-.063-.087-.133-.134-.2s-.075-.11-.115-.164-.091-.119-.138-.179-.1-.125-.154-.187-.087-.1-.135-.156c-.066-.075-.136-.147-.207-.219-.039-.043-.078-.086-.119-.126-.116-.113-.236-.227-.365-.34q-.4-.348-.79-.686c-.928-.8-1.838-1.563-2.679-2.35-2.291-2.135-4.055-4.408-4.205-7.814a21.213,21.213,0,0,1,.173-3.775c-4.244,3.593-6.919,10.122-6.551,16.476a13.852,13.852,0,0,0,3.3,8.546,7.475,7.475,0,0,0,5.353,1.032C984.183,653.612,987.508,651.1,988.171,648.04Z" transform="translate(-971.938 -625.074)" fill="#feb100"/>
      <path id="Path_7200" data-name="Path 7200" d="M995.761,627.672c.017-.124.037-.244.057-.354-.014.064-.029.13-.041.193C995.773,627.533,995.766,627.59,995.761,627.672Z" transform="translate(-988.917 -624.399)" fill="url(#radial-gradient-59)" style="mix-blend-mode: multiply;isolation: isolate"/>
      <path id="Path_7201" data-name="Path 7201" d="M1001.681,718.956c.067-.01.134-.025.2-.038l-.062.009C1001.773,718.937,1001.728,718.948,1001.681,718.956Z" transform="translate(-993.136 -689.682)" fill="url(#radial-gradient-60)"/>
      <path id="Path_7202" data-name="Path 7202" d="M1006.166,717.9c-.072.022-.145.041-.217.06C1006.021,717.936,1006.094,717.919,1006.166,717.9Z" transform="translate(-996.177 -688.954)" fill="url(#radial-gradient-61)"/>
      <path id="Path_7203" data-name="Path 7203" d="M1003.63,718.463c-.128.03-.254.058-.381.082C1003.376,718.521,1003.5,718.493,1003.63,718.463Z" transform="translate(-994.253 -689.357)" fill="url(#radial-gradient-62)"/>
      <path id="Path_7204" data-name="Path 7204" d="M995.16,631.763c0-.088,0-.176,0-.266,0-.05,0-.1.006-.155,0-.086.005-.176.01-.262,0-.06.009-.119.013-.18s.1-1.8.142-2.352A23.384,23.384,0,0,0,995.16,631.763Z" transform="translate(-988.487 -625.276)" fill="url(#radial-gradient-63)"/>
      <path id="Path_7205" data-name="Path 7205" d="M1014.945,672.984l.557.482c-.019-.017-.036-.035-.056-.053-.071-.062-.142-.122-.213-.185-.193-.168-.385-.335-.576-.5-.125-.109-.248-.212-.372-.32q-.734-.629-1.443-1.25a.09.09,0,0,1,.016.013C1013.529,671.773,1014.231,672.368,1014.945,672.984Z" transform="translate(-1001.09 -655.644)" fill="url(#radial-gradient-64)"/>
      <path id="Path_7206" data-name="Path 7206" d="M995.793,646.277c0,.012,0,.024.006.036C995.8,646.3,995.795,646.288,995.793,646.277Z" transform="translate(-988.939 -637.911)" fill="url(#radial-gradient-65)"/>
      <path id="Path_7207" data-name="Path 7207" d="M994.862,627.564c0,.009,0,.018,0,.026.106-.089.209-.186.317-.272C995.067,627.4,994.964,627.481,994.862,627.564Z" transform="translate(-988.272 -624.399)" fill="url(#radial-gradient-66)"/>
      <path id="Path_7208" data-name="Path 7208" d="M1002.222,642.238c-.007-.007-.014-.011-.02-.017l-.557-.482c-.715-.615-1.416-1.211-2.087-1.812a.091.091,0,0,0-.016-.013c-.09-.081-.183-.161-.272-.241-.2-.179-.392-.365-.591-.539a14.3,14.3,0,0,1-1.97-2.088c-.02-.025-.037-.049-.056-.075a20.608,20.608,0,0,0,2.029,2.161q.291.271.589.54c.553.495,1.131.99,1.716,1.492-.521-.525-1.027-1.043-1.5-1.566a10.52,10.52,0,0,1-3.221-7.14,12.2,12.2,0,0,1,.809-4.606l-2.387-.534c-.009,0-.018.023-.026.037l.008-.037c-.109.086-.2.183-.307.272a21.205,21.205,0,0,0-.169,3.775c.15,3.406,1.917,5.679,4.208,7.814.841.786,1.752,1.554,2.681,2.35.262.226.527.454.79.686.129.113.249.227.364.34.043.041.081.083.12.126.071.072.141.144.207.219.048.051.092.1.135.155s.105.126.154.187.094.119.138.179.078.109.115.164.087.136.135.2a5.415,5.415,0,0,1,.779,3.581c-.663,3.062-3.988,5.572-7.551,6.28l.062-.009c.085-.015.168-.03.252-.049.127-.024.253-.052.382-.082s.264-.067.394-.1c.072-.019.145-.038.217-.059,3.225-.942,6.224-3.228,6.751-6.014C1005.049,644.577,1002.32,642.328,1002.222,642.238Zm-7.182-8.072c-.011-.03-.019-.063-.03-.093.042.115.089.226.134.339C995.111,634.329,995.072,634.25,995.041,634.166Z" transform="translate(-987.79 -624.399)" fill="#9b6f0b"/>
    </g>
    <text id="Rezilla" transform="translate(1023.883 644.886)" fill="#fff" font-size="34" font-family="SegoeUI, Segoe UI"><tspan x="0" y="0">Rezilla</tspan></text>
  </g>
</svg>
