<svg xmlns="http://www.w3.org/2000/svg" xmlns:xlink="http://www.w3.org/1999/xlink" width="146.945" height="48.907" viewBox="0 0 146.945 48.907">
  <defs>
    <radialGradient id="radial-gradient" cx="0.422" cy="0.393" r="0.743" gradientTransform="matrix(0.82, -0.572, 0.572, 0.82, -2.211, 0.275)" gradientUnits="objectBoundingBox">
      <stop offset="0" stop-color="#fff"/>
      <stop offset="0.364" stop-color="#f1f0ef"/>
      <stop offset="1" stop-color="#343433"/>
    </radialGradient>
    <radialGradient id="radial-gradient-2" cx="-1035.984" cy="119.25" r="2344.822" gradientTransform="matrix(-0.42, 0.616, -0.329, -0.788, -22229.461, -12990.007)" gradientUnits="objectBoundingBox">
      <stop offset="0.027" stop-color="#fff"/>
      <stop offset="0.407" stop-color="#abcf37"/>
      <stop offset="1" stop-color="#086e38"/>
    </radialGradient>
    <radialGradient id="radial-gradient-3" cx="984.736" cy="-1124.689" r="2973.642" gradientTransform="matrix(-0.408, 0.644, -0.344, -0.765, -25392.6, -14465.226)" xlink:href="#radial-gradient-2"/>
    <radialGradient id="radial-gradient-4" cx="-6.583" cy="-0.065" r="5.473" gradientTransform="matrix(-1.101, 0.616, -0.862, -0.788, -178.859, 0.347)" xlink:href="#radial-gradient-2"/>
    <linearGradient id="linear-gradient" x1="-3090.783" y1="6693.763" x2="-2723.201" y2="6714.564" gradientTransform="matrix(1, 0, 0, 1, 0, 0)" xlink:href="#radial-gradient-2"/>
    <radialGradient id="radial-gradient-5" cx="-445.939" cy="82.201" r="542.083" gradientTransform="matrix(0.89, -0.29, 0.259, 0.92, -1993, -268.364)" xlink:href="#radial-gradient-2"/>
    <linearGradient id="linear-gradient-2" x1="-1608.895" y1="3072.691" x2="-1403.168" y2="3083.356" gradientTransform="matrix(1, 0, 0, 1, 0, 0)" xlink:href="#radial-gradient-2"/>
    <radialGradient id="radial-gradient-6" cx="-271.654" cy="51.425" r="288.854" gradientTransform="matrix(0.971, -0.29, 0.283, 0.92, -884.9, -174.14)" xlink:href="#radial-gradient-2"/>
    <linearGradient id="linear-gradient-3" x1="-5210.625" y1="12988.285" x2="-4584.082" y2="13028.994" gradientTransform="matrix(1, 0, 0, 1, 0, 0)" xlink:href="#radial-gradient-2"/>
    <radialGradient id="radial-gradient-7" cx="-757.687" cy="242.556" r="1104.549" gradientTransform="matrix(0.775, -0.29, 0.226, 0.92, -3919.532, -325.265)" xlink:href="#radial-gradient-2"/>
    <linearGradient id="linear-gradient-4" x1="-16543.908" y1="37106.531" x2="-16543.783" y2="37106.535" gradientTransform="matrix(1, 0, 0, 1, 0, 0)" xlink:href="#radial-gradient-2"/>
    <radialGradient id="radial-gradient-8" cx="0.498" cy="0.497" r="0.465" gradientTransform="matrix(1.158, -0.29, 0.337, 0.92, -9898.462, -1819.179)" xlink:href="#radial-gradient-2"/>
    <linearGradient id="linear-gradient-5" x1="-2065.765" y1="4336.49" x2="-1806.8" y2="4351.05" gradientTransform="matrix(1, 0, 0, 1, 0, 0)" xlink:href="#radial-gradient-2"/>
    <radialGradient id="radial-gradient-9" cx="-330.24" cy="71.478" r="391.078" gradientTransform="matrix(0.895, -0.29, 0.261, 0.92, -1292.484, -191.807)" xlink:href="#radial-gradient-2"/>
    <linearGradient id="linear-gradient-6" x1="-900.204" y1="1159.581" x2="-787.961" y2="1163.557" gradientTransform="matrix(1, 0, 0, 1, 0, 0)" xlink:href="#radial-gradient-2"/>
    <radialGradient id="radial-gradient-10" cx="-139.485" cy="-6.967" r="91.17" gradientTransform="matrix(1.421, -0.29, 0.414, 0.92, -135.152, -133.743)" xlink:href="#radial-gradient-2"/>
    <linearGradient id="linear-gradient-7" x1="-709.28" y1="667.091" x2="-621.46" y2="669.391" gradientTransform="matrix(1, 0, 0, 1, 0, 0)" xlink:href="#radial-gradient-2"/>
    <radialGradient id="radial-gradient-11" cx="-132.118" cy="-4.942" r="59.641" gradientTransform="matrix(1.923, -0.29, 0.56, 0.92, 222.9, -130.333)" xlink:href="#radial-gradient-2"/>
    <linearGradient id="linear-gradient-8" x1="-654.938" y1="567.297" x2="-577.297" y2="569.149" gradientTransform="matrix(1, 0, 0, 1, 0, 0)" xlink:href="#radial-gradient-2"/>
    <linearGradient id="linear-gradient-9" x1="-608.726" y1="964.876" x2="-608.702" y2="964.876" gradientTransform="matrix(1, 0, 0, 1, 0, 0)" xlink:href="#radial-gradient-2"/>
    <radialGradient id="radial-gradient-12" cx="-151.808" cy="-0.017" r="86.85" gradientTransform="matrix(1.58, -0.29, 0.46, 0.92, 5.902, -139.42)" xlink:href="#radial-gradient-2"/>
    <linearGradient id="linear-gradient-10" x1="-964.748" y1="1383.943" x2="-856.279" y2="1388.048" gradientTransform="matrix(1, 0, 0, 1, 0, 0)" xlink:href="#radial-gradient-2"/>
    <radialGradient id="radial-gradient-13" cx="-126.45" cy="-16.988" r="91.844" gradientTransform="matrix(1.33, -0.29, 0.387, 0.92, -242.037, -132.127)" xlink:href="#radial-gradient-2"/>
    <linearGradient id="linear-gradient-11" x1="-733.272" y1="806.414" x2="-651.844" y2="808.804" gradientTransform="matrix(1, 0, 0, 1, 0, 0)" xlink:href="#radial-gradient-2"/>
    <radialGradient id="radial-gradient-14" cx="-132.525" cy="-5.462" r="68.578" gradientTransform="matrix(1.715, -0.29, 0.499, 0.92, 91.57, -130.514)" xlink:href="#radial-gradient-2"/>
    <linearGradient id="linear-gradient-12" x1="-1112.264" y1="1746.652" x2="-977.732" y2="1752.336" gradientTransform="matrix(1, 0, 0, 1, 0, 0)" xlink:href="#radial-gradient-2"/>
    <radialGradient id="radial-gradient-15" cx="-185.93" cy="11.049" r="151.418" gradientTransform="matrix(1.192, -0.29, 0.347, 0.92, -394.726, -150.772)" xlink:href="#radial-gradient-2"/>
    <linearGradient id="linear-gradient-13" x1="-1252.101" y1="2132.113" x2="-1110.607" y2="2138.411" gradientTransform="matrix(1, 0, 0, 1, 0, 0)" xlink:href="#radial-gradient-2"/>
    <radialGradient id="radial-gradient-16" cx="-192.389" cy="7.098" r="168.807" gradientTransform="matrix(1.131, -0.29, 0.329, 0.92, -531.717, -157.849)" xlink:href="#radial-gradient-2"/>
    <radialGradient id="radial-gradient-17" cx="0.5" cy="0.5" r="0.393" gradientTransform="matrix(1.854, 0.425, -0.871, 0.905, -113.176, -15.951)" gradientUnits="objectBoundingBox">
      <stop offset="0" stop-color="#fff"/>
      <stop offset="0.434" stop-color="#ffca07"/>
      <stop offset="1" stop-color="#f48020"/>
    </radialGradient>
    <radialGradient id="radial-gradient-18" cx="0.499" cy="0.5" r="0.409" gradientTransform="matrix(1.559, 0.425, -0.732, 0.905, -322.386, -53.18)" xlink:href="#radial-gradient-17"/>
    <radialGradient id="radial-gradient-19" cx="1600.572" cy="424.423" r="1304.521" gradientTransform="matrix(1.664, -0.11, 0.199, 1.077, -7139.33, 816.342)" xlink:href="#radial-gradient-17"/>
    <radialGradient id="radial-gradient-20" cx="-2025.742" cy="137.093" r="1706.485" gradientTransform="matrix(1.656, -0.144, 0.259, 1.063, -3692.911, 480.604)" xlink:href="#radial-gradient-17"/>
    <radialGradient id="radial-gradient-21" cx="0.493" cy="0.5" r="0.354" gradientTransform="matrix(25.474, 0.425, -11.967, 0.905, -12223.803, -168.785)" xlink:href="#radial-gradient-17"/>
    <radialGradient id="radial-gradient-22" cx="1.019" cy="0.5" r="0.353" gradientUnits="objectBoundingBox">
      <stop offset="0.027" stop-color="#fff"/>
      <stop offset="0.335" stop-color="#46a6dd"/>
      <stop offset="1" stop-color="#242264"/>
    </radialGradient>
    <radialGradient id="radial-gradient-23" cx="0.5" cy="0.5" r="0.366" gradientTransform="matrix(3.378, 0.425, -1.587, 0.905, -671.092, -53.901)" xlink:href="#radial-gradient-17"/>
    <radialGradient id="radial-gradient-24" cx="0.502" cy="0.5" r="0.354" gradientTransform="matrix(12.718, 0.425, -5.975, 0.905, -4115.602, -103.512)" xlink:href="#radial-gradient-17"/>
    <radialGradient id="radial-gradient-25" cx="0.499" cy="0.5" r="0.358" gradientTransform="matrix(6.113, 0.425, -2.872, 0.905, -1461.128, -69.171)" xlink:href="#radial-gradient-17"/>
    <radialGradient id="radial-gradient-26" cx="0.5" cy="0.5" r="0.36" gradientTransform="matrix(4.911, 0.425, -2.307, 0.905, -1083.812, -62.262)" xlink:href="#radial-gradient-17"/>
    <radialGradient id="radial-gradient-27" cx="0.5" cy="0.5" r="0.363" gradientTransform="matrix(4.001, 0.425, -1.88, 0.905, -829.507, -57.19)" xlink:href="#radial-gradient-17"/>
    <radialGradient id="radial-gradient-28" cx="0.499" cy="0.5" r="0.356" gradientTransform="matrix(8.115, 0.425, -3.812, 0.905, -2154.441, -79.677)" xlink:href="#radial-gradient-17"/>
    <radialGradient id="radial-gradient-29" cx="0.5" cy="0.5" r="0.37" gradientTransform="matrix(2.929, 0.425, -1.376, 0.905, -555.859, -50.864)" xlink:href="#radial-gradient-17"/>
    <radialGradient id="radial-gradient-30" cx="0.5" cy="0.5" r="0.397" gradientTransform="matrix(1.782, 0.425, -0.837, 0.905, -55.147, -8.148)" xlink:href="#radial-gradient-17"/>
    <radialGradient id="radial-gradient-31" cx="0.5" cy="0.5" r="0.376" gradientTransform="matrix(2.513, 0.425, -1.181, 0.905, -465.799, -49.025)" xlink:href="#radial-gradient-17"/>
    <radialGradient id="radial-gradient-32" cx="0.502" cy="0.498" r="0.374" gradientTransform="matrix(-2.91, 0.11, -0.321, -0.994, -209907.891, 1663.474)" xlink:href="#radial-gradient-17"/>
    <radialGradient id="radial-gradient-33" cx="1198.872" cy="84.327" r="465.039" gradientTransform="matrix(-2.876, -0.187, 0.605, -1.086, -259613, -20126.297)" xlink:href="#radial-gradient-17"/>
    <radialGradient id="radial-gradient-34" cx="0.504" cy="0.498" r="0.363" gradientTransform="matrix(-4.152, 0.11, -0.459, -0.994, -186360.281, 2028.909)" xlink:href="#radial-gradient-17"/>
    <radialGradient id="radial-gradient-35" cx="785.128" cy="52.616" r="206.616" gradientTransform="matrix(-4.103, -0.187, 0.863, -1.086, -230794.453, -12015.63)" xlink:href="#radial-gradient-17"/>
    <radialGradient id="radial-gradient-36" cx="0.496" cy="0.501" r="0.386" gradientTransform="matrix(-2.299, 0.11, -0.254, -0.994, -299109.469, 793.45)" xlink:href="#radial-gradient-17"/>
    <radialGradient id="radial-gradient-37" cx="1783.963" cy="113.401" r="888.368" gradientTransform="matrix(-2.272, -0.187, 0.478, -1.086, -368294.563, -37195.648)" xlink:href="#radial-gradient-17"/>
    <radialGradient id="radial-gradient-38" cx="0.457" cy="0.495" r="0.598" gradientTransform="matrix(-0.788, 0.11, -0.087, -0.994, -520527.438, -54092)" xlink:href="#radial-gradient-17"/>
    <radialGradient id="radial-gradient-39" cx="0.457" cy="0.495" r="0.585" gradientTransform="matrix(-0.779, -0.187, 0.164, -1.086, -621603.938, -210096.953)" xlink:href="#radial-gradient-17"/>
    <radialGradient id="radial-gradient-40" cx="0.495" cy="0.5" r="0.364" gradientTransform="matrix(-3.636, 0.11, -0.402, -0.994, -209764.5, 2152.393)" xlink:href="#radial-gradient-17"/>
    <radialGradient id="radial-gradient-41" cx="864.999" cy="64.67" r="266.072" gradientTransform="matrix(-3.594, -0.187, 0.756, -1.086, -258848.297, -15623.695)" xlink:href="#radial-gradient-17"/>
    <radialGradient id="radial-gradient-42" cx="0.506" cy="0.501" r="0.354" gradientTransform="matrix(1, 0, 0, 1, 0, 0)" xlink:href="#radial-gradient-17"/>
    <radialGradient id="radial-gradient-43" cx="1835.879" cy="38.55" r="78.381" gradientTransform="matrix(1, 0, 0, 1, 0, 0)" xlink:href="#radial-gradient-17"/>
    <radialGradient id="radial-gradient-44" cx="0.485" cy="0.5" r="0.354" xlink:href="#radial-gradient-22"/>
    <radialGradient id="radial-gradient-45" cx="10158.392" cy="34.817" r="70.364" xlink:href="#radial-gradient-22"/>
    <radialGradient id="radial-gradient-46" cx="0.486" cy="0.501" r="0.354" gradientTransform="matrix(1, 0, 0, 1, 0, 0)" xlink:href="#radial-gradient-17"/>
    <radialGradient id="radial-gradient-47" cx="568.222" cy="48.682" r="58.826" gradientTransform="matrix(1, 0, 0, 1, 0, 0)" xlink:href="#radial-gradient-17"/>
    <radialGradient id="radial-gradient-48" cx="0.492" cy="0.5" r="0.354" xlink:href="#radial-gradient-22"/>
    <radialGradient id="radial-gradient-49" cx="1291.261" cy="33.317" r="55.041" xlink:href="#radial-gradient-22"/>
    <radialGradient id="radial-gradient-50" cx="0.48" cy="0.5" r="0.356" gradientTransform="matrix(-7.787, 0.11, -0.86, -0.994, -362820.531, 3386.839)" xlink:href="#radial-gradient-17"/>
    <radialGradient id="radial-gradient-51" cx="842.029" cy="43.652" r="116.95" gradientTransform="matrix(-7.696, -0.187, 1.619, -1.086, -449779.969, -11826.885)" xlink:href="#radial-gradient-17"/>
    <radialGradient id="radial-gradient-52" cx="0.492" cy="0.5" r="0.357" gradientTransform="matrix(-6.054, 0.11, -0.669, -0.994, -291419.313, 3036.525)" xlink:href="#radial-gradient-17"/>
    <radialGradient id="radial-gradient-53" cx="745.789" cy="49.221" r="136.286" gradientTransform="matrix(-5.983, -0.187, 1.259, -1.086, -360014.969, -12414.507)" xlink:href="#radial-gradient-17"/>
    <radialGradient id="radial-gradient-54" cx="4.509" cy="4.93" r="6.035" gradientTransform="matrix(-1.046, 0.165, -0.191, -1.082, -555.954, -56.126)" xlink:href="#radial-gradient-17"/>
    <radialGradient id="radial-gradient-55" cx="8.003" cy="10.526" r="16.159" gradientTransform="matrix(-0.891, 0.165, -0.163, -1.082, -1179.367, -172.911)" xlink:href="#radial-gradient-17"/>
    <radialGradient id="radial-gradient-56" cx="21.305" cy="-59.736" r="122.54" gradientTransform="matrix(-0.258, 0.165, -0.047, -1.082, -1733.661, -2134.469)" xlink:href="#radial-gradient-17"/>
    <radialGradient id="radial-gradient-57" cx="36.192" cy="-122.066" r="257.365" gradientTransform="matrix(-0.19, 0.165, -0.035, -1.082, -2573.593, -4688.338)" xlink:href="#radial-gradient-17"/>
    <radialGradient id="radial-gradient-58" cx="224.84" cy="68.966" r="59.458" gradientTransform="matrix(-4.33, 0.165, -0.793, -1.082, -58594.051, 848.094)" xlink:href="#radial-gradient-17"/>
    <radialGradient id="radial-gradient-59" cx="192.691" cy="56.648" r="35.658" gradientTransform="matrix(-6.133, 0.165, -1.123, -1.082, -66039.492, 983.332)" xlink:href="#radial-gradient-17"/>
    <radialGradient id="radial-gradient-60" cx="14.943" cy="-346.638" r="251.873" gradientTransform="matrix(-0.191, 0.11, -0.021, -0.994, -2561.749, -3696.55)" xlink:href="#radial-gradient-17"/>
    <radialGradient id="radial-gradient-61" cx="8.027" cy="-219.574" r="162.917" gradientTransform="matrix(-0.273, 0.11, -0.03, -0.994, -2508.863, -2297.199)" xlink:href="#radial-gradient-17"/>
    <radialGradient id="radial-gradient-62" cx="6.575" cy="-161.227" r="118.199" gradientTransform="matrix(-0.214, 0.11, -0.024, -0.994, -1359.342, -1699.501)" xlink:href="#radial-gradient-17"/>
    <radialGradient id="radial-gradient-63" cx="27.785" cy="3.861" r="3.06" gradientTransform="matrix(-18.439, 0.11, -2.037, -0.994, -46935.945, 234.522)" xlink:href="#radial-gradient-17"/>
    <radialGradient id="radial-gradient-64" cx="-0.102" cy="0.073" r="4.264" gradientTransform="matrix(-0.862, 0.11, -0.095, -0.994, -298.633, -35.481)" xlink:href="#radial-gradient-17"/>
    <radialGradient id="radial-gradient-65" cx="639.016" cy="205.556" r="266.074" gradientTransform="matrix(-5.654, 0.11, -0.625, -0.994, -441214.219, 4260.059)" xlink:href="#radial-gradient-17"/>
    <radialGradient id="radial-gradient-66" cx="15.486" cy="46.856" r="36.112" gradientTransform="matrix(-0.854, 0.11, -0.094, -0.994, -2464.881, -211.549)" xlink:href="#radial-gradient-17"/>
  </defs>
  <g id="Logo" transform="translate(-971.938 -607.886)">
    <g id="Group_1987" data-name="Group 1987" transform="translate(971.938 614.253)">
      <g id="Group_1986" data-name="Group 1986" transform="translate(0.036 0.035)" opacity="0.8" style="mix-blend-mode: screen;isolation: isolate">
        <path id="Path_7101" data-name="Path 7101" d="M993.036,659.728c-.385-.01-.729-.026-1.05-.05l-.06,0c-.326-.024-.677-.06-1.073-.109-.09-.011-.179-.024-.269-.036l-.091-.013q-.37-.051-.736-.115l-.063-.011c-.105-.018-.211-.036-.316-.057-.288-.054-.573-.116-.858-.182,0,0-.223-.052-.3-.072-.291-.073-.58-.151-.866-.236-.134-.04-.267-.08-.4-.123l-.052-.017c-.187-.059-.373-.117-.557-.183l-.173-.057c-.078-.025-.154-.051-.232-.079l-.243-.089c-.148-.053-.294-.106-.44-.168a15.023,15.023,0,0,1-4.008-2.343l-.093-.005v-.021c.016-.005.029-.012.032-.028l.005-.021-.016-.014.028-2.363.18.024-.089-.074a20.451,20.451,0,0,1-3.4-3.671,5.846,5.846,0,0,1-2.053-.913c-.037-.025-.07-.05-.1-.072-.836-.68-3.357-4.337-3.657-9.493-.018-.3-.027-.611-.032-.917l0-.2c0-.306,0-.612.01-.918l0-.045c.01-.3.026-.591.047-.885l.013-.174c.024-.3.052-.609.089-.911l.013-.108c.034-.274.072-.546.115-.819l.028-.179q.072-.437.159-.871l.04-.191c.05-.238.1-.477.162-.713l.051-.217q.1-.4.214-.8l.084-.286c.057-.19.116-.379.179-.568,0,0,.073-.227.1-.293.08-.234.163-.466.25-.7.048-.13.1-.258.149-.387s.1-.256.156-.383q.149-.362.311-.716l.121-.267c.076-.163.153-.323.233-.483l.078-.154c.172-.341.351-.675.531-.992q.563-.988,1.137-1.8l.007,0a18.125,18.125,0,0,1,3.033-3.346l.009-.008.015-.032.076-.065.062-.049c.041-.037.081-.073.122-.108l.056-.03,2.615.573-.082.217.233-.173c.095-.071.189-.141.286-.209a20.27,20.27,0,0,1,11.651-3.67,20.518,20.518,0,0,1,5.434.733,8.855,8.855,0,0,1,1.039-.067,5.832,5.832,0,0,1,.794.052c1.417.2,6.686,2.427,10.22,7.492,4.752,6.811,5.792,16.019,2.588,22.914l-.006.012.01.027-.053.092c-.063.123-.124.246-.189.368l-3.377.992-.018-.119-.048.065a20.339,20.339,0,0,1-3.528,3.673c-.054.132-.1.245-.152.35-.014.033-.028.062-.041.087a10.635,10.635,0,0,1-3.143,2.945,13.945,13.945,0,0,1-4.352,2.06c-.388.1-.787.193-1.185.273l-.5.1q-.415.083-.834.149l-.064.011c-.081.013-.163.027-.244.037a22.121,22.121,0,0,1-2.232.2l-.315.009c-.195,0-.389.007-.584.007Zm-9.339-4.345.012.067c.155-.028.307-.058.455-.086l.112-.022-.105-.042-.012-.007Z" transform="translate(-972.049 -617.267)" fill="#fff"/>
      </g>
      <path id="Path_7102" data-name="Path 7102" d="M1015.289,625.9a20.43,20.43,0,1,1-28.445-5.064A20.432,20.432,0,0,1,1015.289,625.9Z" transform="translate(-976.13 -617.158)" fill="url(#radial-gradient)"/>
      <path id="Path_7103" data-name="Path 7103" d="M1085.583,705.429c.246-.214,1.055-.852,1.23-1.041a10.362,10.362,0,0,0-2.827-6.251A9.959,9.959,0,0,1,1085.583,705.429Z" transform="translate(-1048.137 -672.228)" fill="#009147" opacity="0.4" style="mix-blend-mode: multiply;isolation: isolate"/>
      <path id="Path_7104" data-name="Path 7104" d="M1082.612,689.3c.419.227.829.479,1.228.745A13.558,13.558,0,0,0,1082.612,689.3Z" transform="translate(-1047.203 -666.221)" fill="none"/>
      <path id="Path_7105" data-name="Path 7105" d="M1081.3,688.627c.129.064.26.128.387.2C1081.559,688.757,1081.43,688.691,1081.3,688.627Z" transform="translate(-1046.311 -665.761)" fill="none"/>
      <path id="Path_7106" data-name="Path 7106" d="M1082.511,689.249l.032.017Z" transform="translate(-1047.134 -666.184)" fill="url(#radial-gradient-2)"/>
      <path id="Path_7107" data-name="Path 7107" d="M1082.511,689.249l.032.017Z" transform="translate(-1047.134 -666.184)" fill="url(#radial-gradient-3)"/>
      <path id="Path_7108" data-name="Path 7108" d="M1086.451,691.633a16.539,16.539,0,0,1,5.532,7.6c.028.08.051.166.08.246A14.456,14.456,0,0,0,1086.451,691.633Z" transform="translate(-1049.814 -667.805)" fill="url(#radial-gradient-4)"/>
      <path id="Path_7109" data-name="Path 7109" d="M1096.346,701.6c.069.1.139.208.206.314C1096.485,701.806,1096.415,701.7,1096.346,701.6Z" transform="translate(-1056.543 -674.582)" fill="none"/>
      <path id="Path_7110" data-name="Path 7110" d="M1097.272,703.044c.063.1.126.206.187.312C1097.4,703.25,1097.335,703.147,1097.272,703.044Z" transform="translate(-1057.172 -675.566)" fill="none"/>
      <path id="Path_7111" data-name="Path 7111" d="M1090.026,694.4c.112.1.222.2.33.3C1090.248,694.6,1090.138,694.5,1090.026,694.4Z" transform="translate(-1052.245 -669.689)" fill="none"/>
      <path id="Path_7112" data-name="Path 7112" d="M1098.164,704.572c.056.1.112.2.166.3C1098.276,704.772,1098.22,704.674,1098.164,704.572Z" transform="translate(-1057.779 -676.605)" fill="none"/>
      <path id="Path_7113" data-name="Path 7113" d="M1095.38,700.233q.117.156.226.314Q1095.5,700.389,1095.38,700.233Z" transform="translate(-1055.886 -673.654)" fill="none"/>
      <path id="Path_7114" data-name="Path 7114" d="M1099.015,706.191c.05.1.1.193.146.293C1099.114,706.384,1099.065,706.287,1099.015,706.191Z" transform="translate(-1058.358 -677.706)" fill="none"/>
      <path id="Path_7115" data-name="Path 7115" d="M1093.345,697.715q.135.15.266.309Q1093.48,697.865,1093.345,697.715Z" transform="translate(-1054.502 -671.942)" fill="none"/>
      <path id="Path_7116" data-name="Path 7116" d="M1092.271,696.543c.1.1.193.2.287.308C1092.464,696.745,1092.368,696.645,1092.271,696.543Z" transform="translate(-1053.771 -671.145)" fill="none"/>
      <path id="Path_7117" data-name="Path 7117" d="M1091.166,695.442c.1.1.207.2.308.306C1091.373,695.644,1091.27,695.541,1091.166,695.442Z" transform="translate(-1053.02 -670.396)" fill="none"/>
      <path id="Path_7118" data-name="Path 7118" d="M1094.381,698.935c.083.1.165.207.246.313C1094.546,699.142,1094.464,699.039,1094.381,698.935Z" transform="translate(-1055.206 -672.771)" fill="none"/>
      <path id="Path_7119" data-name="Path 7119" d="M1088.861,693.422c.118.1.234.193.35.293C1089.1,693.615,1088.979,693.518,1088.861,693.422Z" transform="translate(-1051.453 -669.022)" fill="none"/>
      <path id="Path_7120" data-name="Path 7120" d="M1080.787,688.395l.032.017c.419.227.829.479,1.228.745.13.089.258.181.385.274a13.884,13.884,0,0,0-2.457-1.438c.141.068.284.131.424.2S1080.66,688.324,1080.787,688.395Z" transform="translate(-1045.41 -665.33)" fill="none"/>
      <path id="Path_7121" data-name="Path 7121" d="M1087.664,692.5c.125.092.248.187.37.284C1087.912,692.688,1087.788,692.593,1087.664,692.5Z" transform="translate(-1050.638 -668.396)" fill="none"/>
      <path id="Path_7122" data-name="Path 7122" d="M1100.632,709.763c.032.079.064.155.094.234C1100.7,709.918,1100.664,709.842,1100.632,709.763Z" transform="translate(-1059.457 -680.135)" fill="none"/>
      <path id="Path_7123" data-name="Path 7123" d="M1099.828,707.892c.043.093.085.183.126.277C1099.913,708.075,1099.871,707.985,1099.828,707.892Z" transform="translate(-1058.911 -678.863)" fill="none"/>
      <path id="Path_7124" data-name="Path 7124" d="M1089.955,694.337l.023.021Z" transform="translate(-1052.197 -669.644)" fill="url(#linear-gradient)"/>
      <path id="Path_7125" data-name="Path 7125" d="M1089.955,694.337l.023.021Z" transform="translate(-1052.197 -669.644)" fill="url(#radial-gradient-5)" style="mix-blend-mode: multiply;isolation: isolate"/>
      <path id="Path_7126" data-name="Path 7126" d="M1092.129,696.4l.046.046Z" transform="translate(-1053.675 -671.047)" fill="url(#linear-gradient-2)"/>
      <path id="Path_7127" data-name="Path 7127" d="M1092.129,696.4l.046.046Z" transform="translate(-1053.675 -671.047)" fill="url(#radial-gradient-6)" style="mix-blend-mode: multiply;isolation: isolate"/>
      <path id="Path_7128" data-name="Path 7128" d="M1088.819,693.388l.013.011Z" transform="translate(-1051.424 -668.999)" fill="url(#linear-gradient-3)"/>
      <path id="Path_7129" data-name="Path 7129" d="M1088.819,693.388l.013.011Z" transform="translate(-1051.424 -668.999)" fill="url(#radial-gradient-7)" style="mix-blend-mode: multiply;isolation: isolate"/>
      <path id="Path_7130" data-name="Path 7130" d="M1087.654,692.489l0,0Z" transform="translate(-1050.632 -668.388)" fill="url(#linear-gradient-4)"/>
      <path id="Path_7131" data-name="Path 7131" d="M1087.654,692.489l0,0Z" transform="translate(-1050.632 -668.388)" fill="url(#radial-gradient-8)" style="mix-blend-mode: multiply;isolation: isolate"/>
      <path id="Path_7132" data-name="Path 7132" d="M1091.057,695.34a.379.379,0,0,0,.035.033A.379.379,0,0,1,1091.057,695.34Z" transform="translate(-1052.946 -670.326)" fill="url(#linear-gradient-5)"/>
      <path id="Path_7133" data-name="Path 7133" d="M1091.057,695.34a.379.379,0,0,0,.035.033A.379.379,0,0,1,1091.057,695.34Z" transform="translate(-1052.946 -670.326)" fill="url(#radial-gradient-9)" style="mix-blend-mode: multiply;isolation: isolate"/>
      <path id="Path_7134" data-name="Path 7134" d="M1096.088,701.215c.027.041.055.082.083.123Z" transform="translate(-1056.367 -674.322)" fill="url(#linear-gradient-6)"/>
      <path id="Path_7135" data-name="Path 7135" d="M1096.088,701.215c.027.041.055.082.083.123Z" transform="translate(-1056.367 -674.322)" fill="url(#radial-gradient-10)" style="mix-blend-mode: multiply;isolation: isolate"/>
      <path id="Path_7136" data-name="Path 7136" d="M1098.683,705.524c.037.07.071.141.106.213C1098.754,705.665,1098.72,705.594,1098.683,705.524Z" transform="translate(-1058.132 -677.252)" fill="url(#linear-gradient-7)"/>
      <path id="Path_7137" data-name="Path 7137" d="M1098.683,705.524c.037.07.071.141.106.213C1098.754,705.665,1098.72,705.594,1098.683,705.524Z" transform="translate(-1058.132 -677.252)" fill="url(#radial-gradient-11)" style="mix-blend-mode: multiply;isolation: isolate"/>
      <path id="Path_7138" data-name="Path 7138" d="M1099.472,707.107c.039.081.077.168.114.251C1099.549,707.275,1099.511,707.188,1099.472,707.107Z" transform="translate(-1058.669 -678.329)" fill="url(#linear-gradient-8)"/>
      <path id="Path_7139" data-name="Path 7139" d="M1096.991,702.58l.09.148Z" transform="translate(-1056.981 -675.25)" fill="url(#linear-gradient-9)"/>
      <path id="Path_7140" data-name="Path 7140" d="M1096.991,702.58l.09.148Z" transform="translate(-1056.981 -675.25)" fill="url(#radial-gradient-12)" style="mix-blend-mode: multiply;isolation: isolate"/>
      <path id="Path_7141" data-name="Path 7141" d="M1095.149,699.912l.074.1Z" transform="translate(-1055.729 -673.436)" fill="url(#linear-gradient-10)"/>
      <path id="Path_7142" data-name="Path 7142" d="M1095.149,699.912l.074.1Z" transform="translate(-1055.729 -673.436)" fill="url(#radial-gradient-13)" style="mix-blend-mode: multiply;isolation: isolate"/>
      <path id="Path_7143" data-name="Path 7143" d="M1097.856,704.02c.033.057.066.119.1.177C1097.922,704.139,1097.889,704.077,1097.856,704.02Z" transform="translate(-1057.57 -676.229)" fill="url(#linear-gradient-11)"/>
      <path id="Path_7144" data-name="Path 7144" d="M1097.856,704.02c.033.057.066.119.1.177C1097.922,704.139,1097.889,704.077,1097.856,704.02Z" transform="translate(-1057.57 -676.229)" fill="url(#radial-gradient-14)" style="mix-blend-mode: multiply;isolation: isolate"/>
      <path id="Path_7145" data-name="Path 7145" d="M1094.177,698.681c.021.026.044.056.065.081C1094.221,698.737,1094.2,698.708,1094.177,698.681Z" transform="translate(-1055.068 -672.599)" fill="url(#linear-gradient-12)"/>
      <path id="Path_7146" data-name="Path 7146" d="M1094.177,698.681c.021.026.044.056.065.081C1094.221,698.737,1094.2,698.708,1094.177,698.681Z" transform="translate(-1055.068 -672.599)" fill="url(#radial-gradient-15)" style="mix-blend-mode: multiply;isolation: isolate"/>
      <path id="Path_7147" data-name="Path 7147" d="M1093.169,697.507c.019.022.038.043.056.067C1093.207,697.55,1093.188,697.529,1093.169,697.507Z" transform="translate(-1054.382 -671.8)" fill="url(#linear-gradient-13)"/>
      <path id="Path_7148" data-name="Path 7148" d="M1093.169,697.507c.019.022.038.043.056.067C1093.207,697.55,1093.188,697.529,1093.169,697.507Z" transform="translate(-1054.382 -671.8)" fill="url(#radial-gradient-16)" style="mix-blend-mode: multiply;isolation: isolate"/>
      <path id="Path_7149" data-name="Path 7149" d="M1034.428,619.3c-2.109-.3-5.389.671-8,2.457-4.348,3.129-7.171,8.244-5.905,12.185a4.233,4.233,0,0,0,.507,1.019,6.991,6.991,0,0,0,.552.723,6.432,6.432,0,0,0,.534.548c.162.147.336.285.52.422a.023.023,0,0,1,.009.006,8.048,8.048,0,0,0,1.188.718c.064.031.126.064.192.094.1.048.208.092.315.139.087.036.175.072.267.108s.2.074.3.112.221.075.334.111c.095.03.191.061.287.087.139.041.282.077.427.113.081.019.161.042.245.062.185.043.377.08.571.116.37.063.741.128,1.11.188,1.371.225,2.715.44,4.018.678.578.1,1.151.208,1.713.321,4.377.886,8.186,2.24,10.723,5.751a25.687,25.687,0,0,1,2.683,5c3.469-6.9,2.616-16.329-2.351-23.448C1041.042,621.6,1035.69,619.472,1034.428,619.3Z" transform="translate(-1004.773 -618.576)" fill="#3226ff"/>
      <path id="Path_7150" data-name="Path 7150" d="M1045.958,654.3a28.084,28.084,0,0,0-2.09-3.727c-2.52-3.735-6.415-5.131-10.916-6.028-1.653-.329-3.385-.594-5.163-.883-.5-.082-1.007-.164-1.517-.253-.247-.04-.486-.091-.717-.143-.083-.019-.163-.04-.244-.06-.143-.035-.286-.071-.425-.111-.1-.027-.191-.056-.287-.087-.112-.035-.223-.071-.333-.109s-.2-.072-.3-.11-.179-.072-.267-.109c-.105-.044-.212-.09-.314-.135l-.19-.094a7.884,7.884,0,0,1-1.186-.713l-.01-.006c-.181-.135-.355-.272-.516-.418a6.343,6.343,0,0,1-.532-.544c-.112-.13-.219-.26-.32-.394a4.47,4.47,0,0,1-.731-1.339c-1.255-3.924,1.577-9.026,5.924-12.154-4.531,3.1-7.539,8.362-6.253,12.382a5.04,5.04,0,0,0,1.052,1.733,6.476,6.476,0,0,0,.531.544c.163.146.336.284.517.419a.017.017,0,0,1,.009.005,7.691,7.691,0,0,0,1.186.713c.063.031.125.064.19.093.1.047.208.091.314.137.088.037.176.072.267.107s.2.075.3.111.219.075.332.109c.094.028.189.06.286.087.137.039.281.075.424.111.083.019.161.041.245.06.231.053.469.1.717.143l.411.068c.37.061.739.125,1.107.185.238.037.473.076.711.115q1.048.168,2.071.339c.45.117.9.235,1.331.359a14.6,14.6,0,0,1,9.177,5.963,15.107,15.107,0,0,1,2.192,5.8l3.435-1.018C1046.452,655.351,1046.257,654.885,1045.958,654.3Z" transform="translate(-1004.128 -623.769)" fill="#0b01b4"/>
      <path id="Path_7151" data-name="Path 7151" d="M1000.829,726.665c.229.281.6.777.808.984a10,10,0,0,0,6.2-1.272A10.816,10.816,0,0,1,1000.829,726.665Z" transform="translate(-991.585 -691.434)" fill="#c2c2c2" opacity="0.4" style="mix-blend-mode: multiply;isolation: isolate"/>
      <path id="Path_7152" data-name="Path 7152" d="M1022.644,737.134h0Z" transform="translate(-1006.419 -698.749)" fill="#fff"/>
      <path id="Path_7153" data-name="Path 7153" d="M1022.644,737.134h0Z" transform="translate(-1006.419 -698.749)" fill="#fff" style="mix-blend-mode: multiply;isolation: isolate"/>
      <path id="Path_7154" data-name="Path 7154" d="M1017.5,693.755a4.983,4.983,0,0,0-3.691,1.885c-.046.055-.1.108-.148.167s-.1.123-.153.187-.085.109-.128.165c-.057.081-.114.164-.172.249-.029.046-.064.093-.094.143-.089.138-.174.279-.259.427-.047.084-.092.166-.138.249l-.37.669c-.08.146-.156.286-.234.431-.371.679-.735,1.35-1.1,1.995l-.127.216a10.655,10.655,0,0,1-6.315,4.546,13.452,13.452,0,0,1-4.813.223l-.181,2.429s-.2,0-.2.007v.009h.234a23.369,23.369,0,0,0,3.676-.541c.042-.009.141-.017.185-.029.1-.021.214-.045.307-.067.036-.011.086-.019.123-.028l.29-.081.1-.029.084-.027c.08-.024.158-.051.237-.076l.044-.015.054-.02a8.939,8.939,0,0,0,2.688-1.5c.2-.134.341-.233.343-.233.08-.069.14-.16.218-.23s.154-.163.235-.241c.032-.032.061-.067.093-.1.167-.17.33-.346.487-.527.085-.1.169-.2.25-.294.135-.165.269-.333.4-.5.1-.129.192-.26.286-.393q.1-.138.194-.278c.164-.241.327-.487.485-.737l.042-.066c.093-.148.187-.293.278-.443.139-.231.273-.467.41-.7.375-.655.745-1.335,1.122-2.02l-.042.063.262-.481c.167-.3.332-.607.507-.916.085-.148.17-.292.258-.429.031-.049.065-.1.1-.142l.171-.251c.042-.056.085-.111.127-.164s.1-.128.151-.189.1-.116.146-.172.091-.1.138-.146.116-.113.168-.173a5.4,5.4,0,0,1,3.37-1.491c3.211.034,6.724,2.777,7.89,6.31C1024.31,696.861,1020.789,693.755,1017.5,693.755Z" transform="translate(-990.597 -669.249)" fill="#c2c2c2"/>
      <path id="Path_7155" data-name="Path 7155" d="M1026.563,706.445a7.654,7.654,0,0,0-.145-5.671c-1.427-3.453-4.665-6.328-7.892-6.32a4.975,4.975,0,0,0-.869.118,5.375,5.375,0,0,0-2.506,1.438c-.058.056-.119.106-.176.166s-.1.091-.141.145-.1.111-.151.17-.105.123-.155.19-.086.11-.128.168c-.058.081-.118.165-.175.252-.031.048-.066.093-.1.144-.072.111-.14.229-.21.346-.126.225-.254.452-.376.678-.461.84-.905,1.665-1.362,2.454-.2.353-.4.7-.6,1.04-1.593,2.645-3.417,4.826-6.588,5.743a22.513,22.513,0,0,1-4.319.706c4.441,3.659,11.7,5.048,18.091,3.3A14.066,14.066,0,0,0,1026.563,706.445Z" transform="translate(-991.477 -669.724)" fill="#fff"/>
      <path id="Path_7156" data-name="Path 7156" d="M1001.91,629.334c-.373.2-1.386.908-1.666,1.1a12.182,12.182,0,0,0,.431,8.412A13.435,13.435,0,0,1,1001.91,629.334Z" transform="translate(-990.812 -625.438)" fill="#f05a26" opacity="0.63" style="mix-blend-mode: multiply;isolation: isolate"/>
      <path id="Path_7157" data-name="Path 7157" d="M998.177,653.487c-.181-.331-.346-.671-.5-1.024A10.915,10.915,0,0,0,998.177,653.487Z" transform="translate(-989.442 -641.167)" fill="url(#radial-gradient-17)"/>
      <path id="Path_7158" data-name="Path 7158" d="M999.457,656.036c-.057-.1-.116-.195-.172-.3C999.342,655.841,999.4,655.94,999.457,656.036Z" transform="translate(-990.536 -643.397)" fill="url(#radial-gradient-18)"/>
      <path id="Path_7159" data-name="Path 7159" d="M999.255,655.689a.218.218,0,0,1-.015-.025A.218.218,0,0,0,999.255,655.689Z" transform="translate(-990.505 -643.344)" fill="url(#radial-gradient-19)"/>
      <path id="Path_7160" data-name="Path 7160" d="M999.255,655.689a.218.218,0,0,1-.015-.025A.218.218,0,0,0,999.255,655.689Z" transform="translate(-990.505 -643.344)" fill="url(#radial-gradient-20)"/>
      <path id="Path_7161" data-name="Path 7161" d="M995.173,640.54c-.005-.1-.009-.208-.011-.315C995.164,640.33,995.168,640.436,995.173,640.54Z" transform="translate(-987.732 -632.845)" fill="url(#radial-gradient-21)"/>
      <path id="Path_7162" data-name="Path 7162" d="M995.164,639.117q0-.153,0-.306Q995.162,638.965,995.164,639.117Z" transform="translate(-987.732 -631.883)" fill="url(#radial-gradient-22)"/>
      <path id="Path_7163" data-name="Path 7163" d="M996.253,648.279c-.032-.112-.066-.23-.094-.349C996.187,648.048,996.221,648.167,996.253,648.279Z" transform="translate(-988.41 -638.085)" fill="url(#radial-gradient-23)"/>
      <path id="Path_7164" data-name="Path 7164" d="M995.235,641.916c-.01-.106-.017-.214-.023-.324C995.218,641.7,995.225,641.809,995.235,641.916Z" transform="translate(-987.766 -633.775)" fill="url(#radial-gradient-24)"/>
      <path id="Path_7165" data-name="Path 7165" d="M995.506,644.569c-.018-.111-.036-.224-.05-.335C995.47,644.345,995.488,644.458,995.506,644.569Z" transform="translate(-987.932 -635.571)" fill="url(#radial-gradient-25)"/>
      <path id="Path_7166" data-name="Path 7166" d="M995.709,645.836c-.023-.112-.044-.227-.063-.342C995.665,645.609,995.686,645.724,995.709,645.836Z" transform="translate(-988.061 -636.428)" fill="url(#radial-gradient-26)"/>
      <path id="Path_7167" data-name="Path 7167" d="M995.961,647.076c-.029-.115-.056-.229-.078-.347C995.906,646.847,995.933,646.962,995.961,647.076Z" transform="translate(-988.222 -637.269)" fill="url(#radial-gradient-27)"/>
      <path id="Path_7168" data-name="Path 7168" d="M995.343,643.259c-.013-.109-.025-.217-.037-.33C995.318,643.042,995.329,643.15,995.343,643.259Z" transform="translate(-987.83 -634.684)" fill="url(#radial-gradient-28)"/>
      <path id="Path_7169" data-name="Path 7169" d="M996.589,649.454c-.038-.118-.076-.235-.11-.355C996.513,649.219,996.55,649.336,996.589,649.454Z" transform="translate(-988.627 -638.88)" fill="url(#radial-gradient-29)"/>
      <path id="Path_7170" data-name="Path 7170" d="M997.893,652.763a.227.227,0,0,1-.015-.025c-.181-.331-.346-.671-.5-1.024-.048-.115-.1-.233-.141-.352a10.673,10.673,0,0,0,1.02,2.009c-.064-.1-.131-.205-.194-.313S997.948,652.864,997.893,652.763Z" transform="translate(-989.143 -640.419)" fill="url(#radial-gradient-30)"/>
      <path id="Path_7171" data-name="Path 7171" d="M996.965,650.6q-.067-.173-.127-.354Q996.9,650.426,996.965,650.6Z" transform="translate(-988.871 -639.66)" fill="url(#radial-gradient-31)"/>
      <path id="Path_7172" data-name="Path 7172" d="M996.461,649.045a.235.235,0,0,1-.009-.025A.235.235,0,0,0,996.461,649.045Z" transform="translate(-988.609 -638.826)" fill="url(#radial-gradient-32)"/>
      <path id="Path_7173" data-name="Path 7173" d="M996.461,649.045a.235.235,0,0,1-.009-.025A.235.235,0,0,0,996.461,649.045Z" transform="translate(-988.609 -638.826)" fill="url(#radial-gradient-33)"/>
      <path id="Path_7174" data-name="Path 7174" d="M995.856,646.616c-.006-.017-.008-.034-.013-.053C995.848,646.582,995.85,646.6,995.856,646.616Z" transform="translate(-988.195 -637.155)" fill="url(#radial-gradient-34)"/>
      <path id="Path_7175" data-name="Path 7175" d="M995.856,646.616c-.006-.017-.008-.034-.013-.053C995.848,646.582,995.85,646.6,995.856,646.616Z" transform="translate(-988.195 -637.155)" fill="url(#radial-gradient-35)"/>
      <path id="Path_7176" data-name="Path 7176" d="M996.827,650.221c0-.005,0-.009-.005-.012S996.825,650.215,996.827,650.221Z" transform="translate(-988.861 -639.635)" fill="url(#radial-gradient-36)"/>
      <path id="Path_7177" data-name="Path 7177" d="M996.827,650.221c0-.005,0-.009-.005-.012S996.825,650.215,996.827,650.221Z" transform="translate(-988.861 -639.635)" fill="url(#radial-gradient-37)"/>
      <path id="Path_7178" data-name="Path 7178" d="M998.067,650.925h0Z" transform="translate(-989.706 -640.121)" fill="url(#radial-gradient-38)"/>
      <path id="Path_7179" data-name="Path 7179" d="M998.067,650.925h0Z" transform="translate(-989.706 -640.121)" fill="url(#radial-gradient-39)"/>
      <path id="Path_7180" data-name="Path 7180" d="M996.138,647.85c0-.014-.008-.025-.01-.037C996.13,647.825,996.135,647.836,996.138,647.85Z" transform="translate(-988.389 -638.005)" fill="url(#radial-gradient-40)"/>
      <path id="Path_7181" data-name="Path 7181" d="M996.138,647.85c0-.014-.008-.025-.01-.037C996.13,647.825,996.135,647.836,996.138,647.85Z" transform="translate(-988.389 -638.005)" fill="url(#radial-gradient-41)"/>
      <path id="Path_7182" data-name="Path 7182" d="M995.2,641.333c0-.04,0-.082,0-.122C995.2,641.251,995.2,641.293,995.2,641.333Z" transform="translate(-987.755 -633.516)" fill="url(#radial-gradient-42)"/>
      <path id="Path_7183" data-name="Path 7183" d="M995.2,641.333c0-.04,0-.082,0-.122C995.2,641.251,995.2,641.293,995.2,641.333Z" transform="translate(-987.755 -633.516)" fill="url(#radial-gradient-43)"/>
      <path id="Path_7184" data-name="Path 7184" d="M995.162,639.914c0-.049,0-.1,0-.146C995.163,639.816,995.162,639.865,995.162,639.914Z" transform="translate(-987.732 -632.534)" fill="url(#radial-gradient-44)"/>
      <path id="Path_7185" data-name="Path 7185" d="M995.162,639.914c0-.049,0-.1,0-.146C995.163,639.816,995.162,639.865,995.162,639.914Z" transform="translate(-987.732 -632.534)" fill="url(#radial-gradient-45)" style="mix-blend-mode: multiply;isolation: isolate"/>
      <path id="Path_7186" data-name="Path 7186" d="M995.291,642.708c0-.033-.005-.07-.007-.1C995.286,642.638,995.289,642.675,995.291,642.708Z" transform="translate(-987.815 -634.463)" fill="url(#radial-gradient-46)"/>
      <path id="Path_7187" data-name="Path 7187" d="M995.291,642.708c0-.033-.005-.07-.007-.1C995.286,642.638,995.289,642.675,995.291,642.708Z" transform="translate(-987.815 -634.463)" fill="url(#radial-gradient-47)"/>
      <path id="Path_7188" data-name="Path 7188" d="M995.165,638.445c0-.056.005-.115.007-.172C995.17,638.33,995.166,638.389,995.165,638.445Z" transform="translate(-987.734 -631.518)" fill="url(#radial-gradient-48)"/>
      <path id="Path_7189" data-name="Path 7189" d="M995.165,638.445c0-.056.005-.115.007-.172C995.17,638.33,995.166,638.389,995.165,638.445Z" transform="translate(-987.734 -631.518)" fill="url(#radial-gradient-49)" style="mix-blend-mode: multiply;isolation: isolate"/>
      <path id="Path_7190" data-name="Path 7190" d="M995.432,644.048c0-.03-.009-.059-.011-.088C995.423,643.989,995.428,644.017,995.432,644.048Z" transform="translate(-987.908 -635.385)" fill="url(#radial-gradient-50)"/>
      <path id="Path_7191" data-name="Path 7191" d="M995.432,644.048c0-.03-.009-.059-.011-.088C995.423,643.989,995.428,644.017,995.432,644.048Z" transform="translate(-987.908 -635.385)" fill="url(#radial-gradient-51)"/>
      <path id="Path_7192" data-name="Path 7192" d="M995.622,645.349c0-.023-.007-.044-.011-.068C995.616,645.3,995.617,645.326,995.622,645.349Z" transform="translate(-988.037 -636.283)" fill="url(#radial-gradient-52)"/>
      <path id="Path_7193" data-name="Path 7193" d="M995.622,645.349c0-.023-.007-.044-.011-.068C995.616,645.3,995.617,645.326,995.622,645.349Z" transform="translate(-988.037 -636.283)" fill="url(#radial-gradient-53)"/>
      <path id="Path_7194" data-name="Path 7194" d="M1005.176,663.5a21.818,21.818,0,0,1-2.194-2.325A15.932,15.932,0,0,0,1005.176,663.5Z" transform="translate(-993.05 -647.094)" fill="url(#radial-gradient-54)" style="mix-blend-mode: multiply;isolation: isolate"/>
      <path id="Path_7195" data-name="Path 7195" d="M1010.8,669.313c-.326-.289-.649-.578-.961-.868.222.193.436.4.658.6C1010.595,669.134,1010.7,669.223,1010.8,669.313Z" transform="translate(-997.712 -652.036)" fill="url(#radial-gradient-55)" style="mix-blend-mode: multiply;isolation: isolate"/>
      <path id="Path_7196" data-name="Path 7196" d="M1005.015,718.1c-.145.04-.293.079-.439.115C1004.722,718.184,1004.869,718.144,1005.015,718.1Z" transform="translate(-994.134 -685.807)" fill="url(#radial-gradient-56)" style="mix-blend-mode: multiply;isolation: isolate"/>
      <path id="Path_7197" data-name="Path 7197" d="M1002.456,718.791c.065-.01.132-.028.2-.042-.093.02-.186.038-.28.054C1002.4,718.8,1002.428,718.8,1002.456,718.791Z" transform="translate(-992.635 -686.246)" fill="url(#radial-gradient-57)" style="mix-blend-mode: multiply;isolation: isolate"/>
      <path id="Path_7198" data-name="Path 7198" d="M995.838,646.506c.009.043.02.087.03.131-.017-.077-.038-.155-.053-.234l.009.051C995.829,646.469,995.833,646.489,995.838,646.506Z" transform="translate(-988.176 -637.046)" fill="url(#radial-gradient-58)" style="mix-blend-mode: multiply;isolation: isolate"/>
      <path id="Path_7199" data-name="Path 7199" d="M990.015,650.286a6.03,6.03,0,0,0-.868-3.988c-.053-.07-.1-.148-.15-.222s-.084-.123-.128-.182-.1-.132-.154-.2-.112-.139-.171-.208-.1-.117-.15-.173c-.074-.083-.151-.164-.231-.243-.044-.048-.086-.1-.133-.141-.129-.126-.263-.253-.406-.378q-.44-.388-.88-.764c-1.033-.886-2.047-1.741-2.983-2.616-2.551-2.377-4.516-4.909-4.683-8.7a23.61,23.61,0,0,1,.192-4.2c-4.726,4-7.7,11.271-7.3,18.347.308,5.3,2.926,8.911,3.67,9.517,1.217.991,3.629,1.484,5.961,1.15C985.574,656.491,989.276,653.7,990.015,650.286Z" transform="translate(-971.938 -624.711)" fill="#feb100"/>
      <path id="Path_7200" data-name="Path 7200" d="M995.761,627.712c.019-.138.041-.272.063-.394-.016.071-.032.144-.046.215C995.774,627.557,995.767,627.621,995.761,627.712Z" transform="translate(-988.139 -624.067)" fill="url(#radial-gradient-59)" style="mix-blend-mode: multiply;isolation: isolate"/>
      <path id="Path_7201" data-name="Path 7201" d="M1001.681,718.961c.075-.011.149-.027.221-.043l-.069.01C1001.783,718.939,1001.733,718.951,1001.681,718.961Z" transform="translate(-992.165 -686.361)" fill="url(#radial-gradient-60)"/>
      <path id="Path_7202" data-name="Path 7202" d="M1006.19,717.9c-.08.024-.161.045-.242.066C1006.029,717.941,1006.111,717.921,1006.19,717.9Z" transform="translate(-995.067 -685.667)" fill="url(#radial-gradient-61)"/>
      <path id="Path_7203" data-name="Path 7203" d="M1003.673,718.463c-.143.033-.283.065-.425.091C1003.39,718.528,1003.532,718.5,1003.673,718.463Z" transform="translate(-993.231 -686.051)" fill="url(#radial-gradient-62)"/>
      <path id="Path_7204" data-name="Path 7204" d="M995.16,632.128c0-.1,0-.2,0-.3,0-.056.005-.115.007-.172,0-.1.006-.2.012-.292,0-.067.01-.132.015-.2s.109-2,.158-2.619A26.037,26.037,0,0,0,995.16,632.128Z" transform="translate(-987.729 -624.905)" fill="url(#radial-gradient-63)"/>
      <path id="Path_7205" data-name="Path 7205" d="M1015.184,673.191l.621.537c-.021-.019-.04-.039-.062-.059-.079-.069-.158-.136-.237-.206-.215-.187-.429-.373-.642-.555-.14-.121-.276-.236-.414-.357q-.817-.7-1.607-1.391a.1.1,0,0,1,.018.015C1013.607,671.843,1014.388,672.506,1015.184,673.191Z" transform="translate(-999.755 -653.882)" fill="url(#radial-gradient-64)"/>
      <path id="Path_7206" data-name="Path 7206" d="M995.793,646.277c0,.013,0,.027.007.04C995.8,646.3,995.795,646.289,995.793,646.277Z" transform="translate(-988.161 -636.961)" fill="url(#radial-gradient-65)"/>
      <path id="Path_7207" data-name="Path 7207" d="M994.862,627.591c0,.01,0,.02-.005.029.118-.1.233-.207.353-.3C995.091,627.407,994.977,627.5,994.862,627.591Z" transform="translate(-987.524 -624.067)" fill="url(#radial-gradient-66)"/>
      <path id="Path_7208" data-name="Path 7208" d="M1003.136,643.932c-.008-.008-.015-.012-.022-.019l-.621-.537c-.8-.685-1.577-1.348-2.324-2.017a.1.1,0,0,0-.018-.015c-.1-.091-.2-.179-.3-.268-.222-.2-.436-.407-.658-.6A15.931,15.931,0,0,1,997,638.151c-.022-.028-.041-.055-.062-.083a22.954,22.954,0,0,0,2.259,2.406q.324.3.656.6c.616.551,1.259,1.1,1.911,1.661-.58-.584-1.144-1.162-1.667-1.744a11.715,11.715,0,0,1-3.587-7.951,13.584,13.584,0,0,1,.9-5.129l-2.658-.594c-.01.005-.02.025-.028.041,0-.015.006-.03.009-.041-.121.1-.224.2-.342.3a23.611,23.611,0,0,0-.188,4.2c.167,3.793,2.135,6.324,4.686,8.7.937.875,1.951,1.73,2.985,2.617.292.251.586.505.879.764.144.126.278.252.406.378.048.045.091.093.134.141.079.08.157.16.231.244.053.056.1.115.15.173s.117.14.172.208.1.133.154.2.087.121.128.182.1.152.15.222a6.03,6.03,0,0,1,.868,3.988c-.738,3.409-4.441,6.205-8.408,6.993l.069-.01c.094-.016.187-.034.28-.054.142-.027.282-.058.425-.092s.294-.075.439-.115c.08-.021.162-.042.242-.066,3.591-1.049,6.931-3.595,7.518-6.7C1006.284,646.537,1003.245,644.033,1003.136,643.932Zm-8-8.988c-.012-.034-.022-.07-.034-.1.047.128.1.252.149.378C995.217,635.125,995.174,635.037,995.138,634.944Z" transform="translate(-987.064 -624.067)" fill="#9b6f0b"/>
    </g>
    <text id="Rezilla" transform="translate(1023.883 644.886)" fill="#fff" font-size="34" font-family="SegoeUI, Segoe UI"><tspan x="0" y="0">Rezilla</tspan></text>
  </g>
</svg>
